<?xml version="1.0" encoding="utf-8"?>
<!-- Generator: Adobe Illustrator 26.0.1, SVG Export Plug-In . SVG Version: 6.00 Build 0)  -->
<svg version="1.1" id="Layer_1" xmlns="http://www.w3.org/2000/svg" xmlns:xlink="http://www.w3.org/1999/xlink" x="0px" y="0px"
	 viewBox="0 0 512 512" style="enable-background:new 0 0 512 512;" xml:space="preserve">
<style type="text/css">
	.st0{fill:url(#SVGID_1_);}
	.st1{fill:url(#SVGID_00000060024541685371409530000007373970159332080316_);}
	.st2{opacity:0.15;clip-path:url(#SVGID_00000175317542435572866740000009938918948358132901_);}
	.st3{fill:#0BECC6;}
	.st4{fill:#19B5CD;}
	.st5{fill:url(#SVGID_00000025422607045129455320000016693943345497104532_);}
</style>
<linearGradient id="SVGID_1_" gradientUnits="userSpaceOnUse" x1="111.4821" y1="280.7621" x2="304.0352" y2="280.7621">
	<stop  offset="0" style="stop-color:#678DDB"/>
	<stop  offset="1" style="stop-color:#4A81C7"/>
</linearGradient>
<path class="st0" d="M206.9,102.5c-48.3,0-87.5,35.3-94.6,81.6l-0.8,8.8v20.9L112,459l97.4-115.4l0.8-48.1l1.1-97v0
	c0-25.7,20.9-46.6,46.6-46.6c20.7,0,40,13.5,46,32.2C296.8,137.9,255.1,102.5,206.9,102.5z"/>
<linearGradient id="SVGID_00000015337547138605312760000006181065923907543207_" gradientUnits="userSpaceOnUse" x1="111.4442" y1="401.1779" x2="210.3227" y2="401.1779">
	<stop  offset="0" style="stop-color:#4772CB"/>
	<stop  offset="1" style="stop-color:#4A81C7"/>
</linearGradient>
<path style="fill:url(#SVGID_00000015337547138605312760000006181065923907543207_);" d="M111.5,442.7c0,5.3-0.3,11.2,0.6,16.3
	c54-0.7,98.2-45.2,98.2-99.4c0-5.3,0.3-11.2-0.6-16.3C155.7,344,111.5,388.6,111.5,442.7z"/>
<g>
	<defs>
		<path id="SVGID_00000003094307387621269530000010186107809032579743_" d="M206.9,102.5c-48.3,0-88.3,35.5-95.4,81.8v29.5
			l0.5,218.9c-0.3,3.3-0.5,6.6-0.5,9.9c0,5.3-0.3,11.2,0.6,16.3c54-0.7,98.2-45.2,98.2-99.4c0-5.3,0.3-11.2-0.6-16.3
			c-0.1,0-0.2,0-0.3,0l0.8-47.8l1.1-97v0c0-25.7,20.9-46.6,46.6-46.6c20.7,0,40,13.5,46,32.2C296.8,137.9,255.1,102.5,206.9,102.5z"
			/>
	</defs>
	<clipPath id="SVGID_00000060032162658593360090000008482744318980533126_">
		<use xlink:href="#SVGID_00000003094307387621269530000010186107809032579743_"  style="overflow:visible;"/>
	</clipPath>
	<path style="opacity:0.15;clip-path:url(#SVGID_00000060032162658593360090000008482744318980533126_);" d="M252.4,62.1
		c-80.9,0-146.5,65.6-146.5,146.5c0,0.1,0,0.2,0,0.4c0.1-53.2,43.3-96.4,96.6-96.4c52.2,0,94.8,41.5,96.5,93.3
		c0.1,0.9,0.1,1.8,0.1,2.7c0,0.1,0,0.2,0,0.3c0,0.1,0,0.2,0,0.3c0,0.4,0,0.9,0,1.3c-0.9,23-18.4,41.6-40.8,44.4
		c-0.1,0.2-0.3,0.3-0.5,0.3c-15.4,0.7-40.6,0.3-49.6,0.2c-2.1,0-3.4-0.1-3.4-0.1c-1.5,0-3,0-4.6,0.1c-0.1,0-0.2,0-0.3,0
		c-1.4,0.1-2.9,0.2-4.3,0.3c-0.2,0-0.3,0-0.5,0c-1.4,0.1-2.8,0.3-4.1,0.5c-0.2,0-0.4,0.1-0.6,0.1c-1.4,0.2-2.7,0.4-4,0.7
		c-0.2,0-0.4,0.1-0.6,0.1c-1.3,0.3-2.7,0.5-4,0.9c-0.2,0-0.4,0.1-0.6,0.1c-1.3,0.3-2.6,0.7-4,1.1c-0.2,0-0.3,0.1-0.5,0.1
		c-1.3,0.4-2.7,0.8-4,1.3c-0.1,0-0.2,0.1-0.3,0.1c-1.4,0.5-2.7,1-4.1,1.5c0,0,0,0,0,0c-2.8,1.1-5.5,2.3-8.1,3.6
		c-0.1,0-0.1,0.1-0.2,0.1c-1.3,0.6-2.5,1.3-3.7,2c-0.1,0.1-0.2,0.1-0.3,0.2c-1.2,0.7-2.4,1.4-3.6,2.1c-0.1,0.1-0.2,0.1-0.3,0.2
		c-1.2,0.7-2.3,1.5-3.4,2.3c-0.1,0.1-0.2,0.1-0.3,0.2c-1.1,0.8-2.3,1.6-3.4,2.4c-0.1,0.1-0.2,0.1-0.3,0.2c-1.1,0.9-2.2,1.7-3.3,2.6
		c-0.1,0-0.1,0.1-0.2,0.1c-1.1,0.9-2.2,1.9-3.3,2.9c-2.8,2.6-1.9,11.6-4.4,14.5c-0.9,1-1.8,2.1-2.6,3.1c-0.1,0.1-0.2,0.2-0.2,0.3
		c-0.8,1-1.6,2.1-2.4,3.1c-0.1,0.1-0.2,0.3-0.3,0.4c-0.8,1-1.5,2.1-2.2,3.2c-0.1,0.1-0.2,0.3-0.3,0.4c-0.7,1.1-1.4,2.2-2.1,3.3
		c-0.1,0.1-0.1,0.2-0.2,0.3c-1.4,2.4-2.7,4.8-3.9,7.2c0,0.1-0.1,0.2-0.1,0.3c-0.6,1.2-1.1,2.4-1.6,3.6c-0.1,0.2-0.1,0.3-0.2,0.5
		c-0.5,1.2-1,2.4-1.5,3.6c-0.1,0.2-0.1,0.4-0.2,0.6c-0.5,1.2-0.9,2.4-1.3,3.7c-0.1,0.2-0.1,0.3-0.2,0.5c-0.4,1.3-0.8,2.5-1.2,3.8
		c0,0.1,0,0.2-0.1,0.3c-0.4,1.3-0.7,2.6-1,4c0,0.1,0,0.1-0.1,0.2c-0.3,1.3-0.6,2.6-0.8,4c0,0.2-0.1,0.4-0.1,0.5
		c-0.2,1.3-0.4,2.6-0.6,3.9c0,0.2-0.1,0.4-0.1,0.7c-0.2,1.3-0.3,2.6-0.5,3.9c0,0.2,0,0.4-0.1,0.6c-0.1,1.3-0.2,2.7-0.3,4
		c0,0.2,0,0.3,0,0.5c-0.1,1.4-0.1,2.9-0.1,4.3l-3.5,92.5c0-18,4.8-34.9,13.2-49.4c16.9-29.2,48.3-48.9,84.3-49.4l1.2,0l32.8,0.4
		c4.9,0.5,9.9,0.8,15,0.8c17.8,0,35-3.2,50.8-9c55.9-20.6,95.8-74.4,95.8-137.5C398.9,127.7,333.3,62.1,252.4,62.1z"/>
</g>
<g>
	<path class="st3" d="M157.7,260.3c0.1-0.1,0.2-0.1,0.3-0.2C157.9,260.1,157.8,260.2,157.7,260.3z"/>
	<path class="st3" d="M150.3,265.4c0.1-0.1,0.2-0.1,0.3-0.2C150.5,265.3,150.4,265.3,150.3,265.4z"/>
	<path class="st3" d="M153.9,262.7c0.1-0.1,0.2-0.1,0.3-0.2C154.1,262.6,154,262.7,153.9,262.7z"/>
	<path class="st3" d="M115.1,317.3c0-0.1,0-0.2,0.1-0.3C115.2,317.1,115.1,317.2,115.1,317.3z"/>
	<path class="st3" d="M161.6,257.9c0.1-0.1,0.2-0.1,0.3-0.2C161.8,257.8,161.7,257.9,161.6,257.9z"/>
	<path class="st3" d="M173.9,252C173.9,252,173.9,252,173.9,252C173.9,252,173.9,252,173.9,252z"/>
	<path class="st3" d="M121.4,300.8c0-0.1,0.1-0.2,0.1-0.3C121.4,300.6,121.4,300.7,121.4,300.8z"/>
	<path class="st3" d="M114,321.5c0-0.1,0-0.1,0.1-0.2C114.1,321.3,114.1,321.4,114,321.5z"/>
	<path class="st3" d="M165.6,255.8c0.1,0,0.1-0.1,0.2-0.1C165.7,255.7,165.7,255.7,165.6,255.8z"/>
	<path class="st3" d="M130.2,286.1c0.1-0.1,0.2-0.3,0.3-0.4C130.4,285.8,130.3,286,130.2,286.1z"/>
	<path class="st3" d="M178,250.5c0.1,0,0.2-0.1,0.3-0.1C178.2,250.5,178.1,250.5,178,250.5z"/>
	<path class="st3" d="M127.7,289.7c0.1-0.1,0.2-0.3,0.3-0.4C127.9,289.4,127.8,289.5,127.7,289.7z"/>
	<path class="st3" d="M119.5,304.9c0.1-0.2,0.1-0.3,0.2-0.5C119.6,304.6,119.6,304.7,119.5,304.9z"/>
	<path class="st3" d="M125.4,293.3c0.1-0.1,0.1-0.2,0.2-0.3C125.5,293.1,125.5,293.2,125.4,293.3z"/>
	<path class="st3" d="M116.4,313.2c0.1-0.2,0.1-0.3,0.2-0.5C116.5,312.9,116.4,313,116.4,313.2z"/>
	<path class="st3" d="M146.9,268.1c0.1,0,0.1-0.1,0.2-0.1C147,268.1,146.9,268.1,146.9,268.1z"/>
	<path class="st3" d="M117.8,309c0.1-0.2,0.1-0.4,0.2-0.6C118,308.7,117.9,308.9,117.8,309z"/>
	<path class="st3" d="M132.8,282.6c0.1-0.1,0.2-0.2,0.2-0.3C133,282.4,132.9,282.5,132.8,282.6z"/>
	<path class="st3" d="M113.1,326c0-0.2,0.1-0.4,0.1-0.5C113.2,325.6,113.1,325.8,113.1,326z"/>
	<path class="st3" d="M195.9,246.2c0.2,0,0.4-0.1,0.6-0.1C196.2,246.1,196,246.1,195.9,246.2z"/>
	<path class="st3" d="M111.9,335.1c0-0.2,0-0.4,0.1-0.6C111.9,334.7,111.9,334.9,111.9,335.1z"/>
	<path class="st3" d="M111.6,339.6c0-0.2,0-0.3,0-0.5C111.6,339.3,111.6,339.5,111.6,339.6z"/>
	<path class="st3" d="M200.6,245.6c0.2,0,0.3,0,0.5,0C200.9,245.6,200.8,245.6,200.6,245.6z"/>
	<path class="st3" d="M191.2,247c0.2,0,0.4-0.1,0.6-0.1C191.6,246.9,191.4,246.9,191.2,247z"/>
	<path class="st3" d="M112.4,330.5c0-0.2,0.1-0.4,0.1-0.7C112.4,330.1,112.4,330.3,112.4,330.5z"/>
	<path class="st3" d="M182.3,249.2c0.2,0,0.3-0.1,0.5-0.1C182.6,249.1,182.4,249.1,182.3,249.2z"/>
	<path class="st3" d="M205.4,245.2c0.1,0,0.2,0,0.3,0C205.6,245.2,205.5,245.2,205.4,245.2z"/>
	<path class="st3" d="M186.7,248c0.2,0,0.4-0.1,0.6-0.1C187,247.9,186.9,247.9,186.7,248z"/>
	<path class="st4" d="M118,308.5c0.5-1.2,0.9-2.4,1.5-3.6C119,306.1,118.5,307.3,118,308.5z"/>
	<path class="st4" d="M119.7,304.4c0.5-1.2,1.1-2.4,1.6-3.6C120.8,302,120.2,303.2,119.7,304.4z"/>
	<path class="st4" d="M111.9,334.5c0.1-1.3,0.3-2.6,0.5-3.9C112.2,331.8,112.1,333.1,111.9,334.5z"/>
	<path class="st4" d="M112.5,329.9c0.2-1.3,0.4-2.6,0.6-3.9C112.9,327.3,112.7,328.6,112.5,329.9z"/>
	<path class="st4" d="M114.1,321.3c0.3-1.3,0.7-2.6,1-4C114.7,318.6,114.4,319.9,114.1,321.3z"/>
	<path class="st4" d="M113.2,325.4c0.3-1.3,0.5-2.7,0.8-4C113.7,322.8,113.5,324.1,113.2,325.4z"/>
	<path class="st4" d="M115.2,317c0.4-1.3,0.8-2.6,1.2-3.8C115.9,314.5,115.5,315.7,115.2,317z"/>
	<path class="st4" d="M116.5,312.7c0.4-1.2,0.8-2.4,1.3-3.7C117.4,310.2,116.9,311.5,116.5,312.7z"/>
	<path class="st4" d="M111.5,343.9c0-1.4,0-2.9,0.1-4.3C111.5,341,111.5,342.5,111.5,343.9z"/>
	<path class="st4" d="M111.6,339.1c0.1-1.4,0.2-2.7,0.3-4C111.8,336.4,111.7,337.8,111.6,339.1z"/>
	<path class="st4" d="M130.5,285.7c0.8-1.1,1.6-2.1,2.4-3.1C132,283.6,131.2,284.6,130.5,285.7z"/>
	<path class="st4" d="M187.2,247.8c1.3-0.3,2.6-0.6,4-0.9C189.9,247.2,188.6,247.5,187.2,247.8z"/>
	<path class="st4" d="M191.8,246.8c1.3-0.3,2.7-0.5,4-0.7C194.5,246.4,193.2,246.6,191.8,246.8z"/>
	<path class="st4" d="M196.4,246.1c1.4-0.2,2.8-0.4,4.1-0.5C199.2,245.7,197.8,245.9,196.4,246.1z"/>
	<path class="st4" d="M182.7,249c1.3-0.4,2.6-0.7,4-1.1C185.3,248.3,184,248.6,182.7,249z"/>
	<path class="st4" d="M178.3,250.4c1.3-0.4,2.6-0.9,4-1.3C180.9,249.5,179.6,250,178.3,250.4z"/>
	<path class="st4" d="M173.9,252c1.3-0.5,2.7-1,4.1-1.5C176.6,251,175.3,251.5,173.9,252z"/>
	<path class="st4" d="M201.1,245.5c1.4-0.1,2.9-0.2,4.3-0.3C204,245.3,202.5,245.4,201.1,245.5z"/>
	<path class="st4" d="M210.3,245.1c0,0,1.2,0,3.4,0.1C212.5,245.1,211.4,245.1,210.3,245.1z"/>
	<path class="st4" d="M205.7,245.2c1.5-0.1,3-0.1,4.6-0.1C208.8,245.1,207.2,245.2,205.7,245.2z"/>
	<path class="st4" d="M128,289.3c0.7-1.1,1.4-2.1,2.2-3.2C129.4,287.1,128.7,288.2,128,289.3z"/>
	<path class="st4" d="M143.6,271c1.1-1,2.2-1.9,3.3-2.9C145.8,269.1,144.7,270,143.6,271z"/>
	<path class="st4" d="M133.1,282.3c0.8-1.1,1.7-2.1,2.6-3.1C134.8,280.2,133.9,281.2,133.1,282.3z"/>
	<path class="st4" d="M125.6,293c0.7-1.1,1.4-2.2,2.1-3.3C127,290.8,126.3,291.9,125.6,293z"/>
	<path class="st4" d="M121.5,300.5c1.2-2.5,2.5-4.9,3.9-7.2C124,295.7,122.7,298.1,121.5,300.5z"/>
	<path class="st4" d="M147,268c1.1-0.9,2.2-1.8,3.3-2.6C149.2,266.2,148.1,267.1,147,268z"/>
	<path class="st4" d="M150.6,265.2c1.1-0.8,2.2-1.6,3.4-2.4C152.8,263.5,151.7,264.4,150.6,265.2z"/>
	<path class="st4" d="M161.9,257.8c1.2-0.7,2.5-1.4,3.7-2C164.3,256.4,163.1,257.1,161.9,257.8z"/>
	<path class="st4" d="M158,260.1c1.2-0.7,2.4-1.4,3.6-2.1C160.4,258.6,159.2,259.3,158,260.1z"/>
	<path class="st4" d="M165.8,255.7c2.6-1.3,5.3-2.6,8.1-3.6C171.1,253.1,168.4,254.4,165.8,255.7z"/>
	<path class="st4" d="M154.3,262.5c1.1-0.8,2.3-1.5,3.4-2.3C156.5,261,155.4,261.8,154.3,262.5z"/>
	
		<linearGradient id="SVGID_00000156553324692834066550000010574772550958480573_" gradientUnits="userSpaceOnUse" x1="111.4821" y1="247.36" x2="404.5221" y2="247.36">
		<stop  offset="0" style="stop-color:#4C9AFF"/>
		<stop  offset="1" style="stop-color:#56B8E9"/>
	</linearGradient>
	<path style="fill:url(#SVGID_00000156553324692834066550000010574772550958480573_);" d="M258,52c-80.9,0-146.5,65.6-146.5,146.5
		c0,0.1,0,0.2,0,0.4c0.1-53.2,43.3-96.4,96.6-96.4c52.2,0,94.8,41.5,96.5,93.3c0.1,0.9,0.1,1.8,0.1,2.7c0,0.1,0,0.2,0,0.3
		c0,0.1,0,0.2,0,0.3c0,0.4,0,0.9,0,1.3c-0.9,23-18.4,41.6-40.8,44.4c-0.1,0.2-0.3,0.3-0.5,0.3c-15.4,0.7-40.6,0.3-49.6,0.2
		c-2.1,0-3.4-0.1-3.4-0.1c-1.5,0-3,0-4.6,0.1c-0.1,0-0.2,0-0.3,0c-1.4,0.1-2.9,0.2-4.3,0.3c-0.2,0-0.3,0-0.5,0
		c-1.4,0.1-2.8,0.3-4.1,0.5c-0.2,0-0.4,0.1-0.6,0.1c-1.4,0.2-2.7,0.4-4,0.7c-0.2,0-0.4,0.1-0.6,0.1c-1.3,0.3-2.7,0.5-4,0.9
		c-0.2,0-0.4,0.1-0.6,0.1c-1.3,0.3-2.6,0.7-4,1.1c-0.2,0-0.3,0.1-0.5,0.1c-1.3,0.4-2.7,0.8-4,1.3c-0.1,0-0.2,0.1-0.3,0.1
		c-1.4,0.5-2.7,1-4.1,1.5c0,0,0,0,0,0c-2.8,1.1-5.5,2.3-8.1,3.6c-0.1,0-0.1,0.1-0.2,0.1c-1.3,0.6-2.5,1.3-3.7,2
		c-0.1,0.1-0.2,0.1-0.3,0.2c-1.2,0.7-2.4,1.4-3.6,2.1c-0.1,0.1-0.2,0.1-0.3,0.2c-1.2,0.7-2.3,1.5-3.4,2.3c-0.1,0.1-0.2,0.1-0.3,0.2
		c-1.1,0.8-2.3,1.6-3.4,2.4c-0.1,0.1-0.2,0.1-0.3,0.2c-1.1,0.9-2.2,1.7-3.3,2.6c-0.1,0-0.1,0.1-0.2,0.1c-1.1,0.9-2.2,1.9-3.3,2.9
		c-2.8,2.6-5.5,5.3-8,8.2c-0.9,1-1.8,2.1-2.6,3.1c-0.1,0.1-0.2,0.2-0.2,0.3c-0.8,1-1.6,2.1-2.4,3.1c-0.1,0.1-0.2,0.3-0.3,0.4
		c-0.8,1-1.5,2.1-2.2,3.2c-0.1,0.1-0.2,0.3-0.3,0.4c-0.7,1.1-1.4,2.2-2.1,3.3c-0.1,0.1-0.1,0.2-0.2,0.3c-1.4,2.4-2.7,4.8-3.9,7.2
		c0,0.1-0.1,0.2-0.1,0.3c-0.6,1.2-1.1,2.4-1.6,3.6c-0.1,0.2-0.1,0.3-0.2,0.5c-0.5,1.2-1,2.4-1.5,3.6c-0.1,0.2-0.1,0.4-0.2,0.6
		c-0.5,1.2-0.9,2.4-1.3,3.7c-0.1,0.2-0.1,0.3-0.2,0.5c-0.4,1.3-0.8,2.5-1.2,3.8c0,0.1,0,0.2-0.1,0.3c-0.4,1.3-0.7,2.6-1,4
		c0,0.1,0,0.1-0.1,0.2c-0.3,1.3-0.6,2.6-0.8,4c0,0.2-0.1,0.4-0.1,0.5c-0.2,1.3-0.4,2.6-0.6,3.9c0,0.2-0.1,0.4-0.1,0.7
		c-0.2,1.3-0.3,2.6-0.5,3.9c0,0.2,0,0.4-0.1,0.6c-0.1,1.3-0.2,2.7-0.3,4c0,0.2,0,0.3,0,0.5c-0.1,1.4-0.1,2.9-0.1,4.3v98.8
		c0-18,4.8-34.9,13.2-49.4c16.9-29.2,48.3-48.9,84.3-49.4l1.2,0l32.8,0.4c4.9,0.5,9.9,0.8,15,0.8c17.8,0,35-3.2,50.8-9
		c55.9-20.6,95.8-74.4,95.8-137.5C404.5,117.6,338.9,52,258,52z"/>
</g>
</svg>
