<?xml version="1.0" encoding="utf-8"?>
<!-- Generator: Adobe Illustrator 26.0.1, SVG Export Plug-In . SVG Version: 6.00 Build 0)  -->
<svg version="1.1" id="Layer_1" xmlns="http://www.w3.org/2000/svg" xmlns:xlink="http://www.w3.org/1999/xlink" x="0px" y="0px"
	 viewBox="0 0 882.6 728" style="enable-background:new 0 0 882.6 728;" xml:space="preserve">
<style type="text/css">
	.st0{opacity:0.5;}
	.st1{fill:#8C7493;}
	.st2{fill:url(#패스_563_00000183964914646098947710000017515478274889727654_);}
	.st3{fill:#251624;}
	.st4{fill:url(#패스_565_00000030462979389926697660000010391978753734860685_);}
	.st5{fill:#CBBBDC;}
	.st6{fill:url(#패스_567_00000052794158553724104270000003062585060476118675_);}
	.st7{fill:url(#패스_569_00000086650885462417378680000001228048571307024278_);}
	.st8{opacity:0.6;}
	.st9{fill:#8770B1;}
	.st10{fill:#010101;}
	.st11{opacity:0.24;fill:#010101;enable-background:new    ;}
	.st12{fill:#154577;}
	.st13{fill:#FFFFFF;}
	.st14{fill:url(#패스_587_00000076592329502140623580000011098761732072873648_);}
	.st15{fill:url(#패스_591_00000114043759167298538580000000819502664733653889_);}
	.st16{fill:#7ECBF1;}
	.st17{opacity:0.5;fill:#7288AA;enable-background:new    ;}
	.st18{fill:url(#패스_605_00000153665313294496143760000013804088889293687173_);}
	.st19{fill:url(#패스_606_00000093150177229297700190000015103344355575438739_);}
	.st20{opacity:0.5;fill:url(#girl-shadow_00000152265136535525524620000015595707989474450827_);enable-background:new    ;}
	.st21{opacity:0.7;fill:#FFFFFF;enable-background:new    ;}
	.st22{fill:#F37352;}
	.st23{fill:#D0CEE8;}
	.st24{fill:#282C63;}
	.st25{fill:#7961AA;}
	.st26{fill:#FFCF85;}
	.st27{fill:#C34527;}
	.st28{fill:#B4A5D0;}
	.st29{fill:#E8DDED;}
	.st30{fill:url(#패스_625_00000006666815081051445040000017339579528827123361_);}
	.st31{fill:url(#패스_626_00000142863154086003319460000011077615180838799800_);}
	.st32{fill:#56479C;}
	.st33{fill:url(#패스_645_00000046302338668390310950000006557316251824371074_);}
	.st34{fill:url(#패스_646_00000053543341272530459150000003961142437318199465_);}
	.st35{fill:url(#패스_628_00000096769787563901721250000013196775800792632216_);}
	.st36{fill:url(#패스_629_00000110448975254448240540000011978076535434426796_);}
	.st37{opacity:0.5;fill:#627AA7;enable-background:new    ;}
	.st38{fill:#F37151;}
	.st39{fill:#EF732A;}
	.st40{fill:#333778;}
	.st41{fill:#71CEE3;}
	.st42{fill:#2A2A68;}
</style>
<g id="mobile" transform="translate(1112.096 441.613)">
	<g id="mobile-shadow" class="st0" style="filter: blur(16px)">
		<path id="패스_564_00000075854618288544262980000001944787622272534413_" class="st1" d="M-873.9-65.6l141.1-81.4
			c0,0,26.3-12.3,51.2,1.2S-364.2,36.5-352.3,43.7c7.8,4.7,23.4,13,25.1,28.2c1.1,9.1-2.9,18.1-10.2,23.5L-488,183.1
			c-17.8,6.9-37.8,5.2-54-4.8c-27.3-16.9-331.1-194.1-331.1-194.1S-901.7-38.8-873.9-65.6z"/>
		<animate attributeName="fill-opacity" attributeType="CSS"
			begin="0s" dur="4.5s" fill="freeze" repeatCount="indefinite"
			values="1; 0.8; 0.5; 0.8;1;"
		/>
	</g>
	<g id="mob-device">
		
			<linearGradient id="패스_563_00000091695635556316780510000014352514203714622363_" gradientUnits="userSpaceOnUse" x1="-3188.9834" y1="-241.6558" x2="-3187.9744" y2="-241.4078" gradientTransform="matrix(559.0211 0 0 339.3229 1781820.25 81875.7969)">
			<stop  offset="0" style="stop-color:#4551A3"/>
			<stop  offset="1" style="stop-color:#BB3454"/>
		</linearGradient>
		<path id="패스_563" style="fill:url(#패스_563_00000091695635556316780510000014352514203714622363_);" d="M-873.9-164.9
			l141.1-81.4c0,0,26.3-12.3,51.2,1.2c24.9,13.5,317.3,182.2,329.2,189.4c7.8,4.7,23.4,13,25.1,28.2c1.1,9.1-2.9,18.1-10.2,23.5
			l-150.6,87.7c-17.8,6.9-37.8,5.2-54-4.8C-569.5,62-873.3-115.2-873.3-115.2S-901.7-138.2-873.9-164.9z"/>
		<g id="그룹_270" transform="translate(72.837 0)">
			<g id="그룹_269" class="st0">
				<path id="패스_564" class="st3" d="M-946.7-164.9l141.1-81.4c0,0,26.3-12.3,51.2,1.2c24.9,13.5,317.3,182.2,329.2,189.4
					c7.8,4.7,23.4,13,25.1,28.2C-399-18.4-403-9.4-410.3-4l-150.6,87.7c-17.8,6.9-37.8,5.2-54-4.8
					C-642.3,62-946.1-115.2-946.1-115.2S-974.6-138.2-946.7-164.9z"/>
			</g>
		</g>
		
			<linearGradient id="패스_565_00000181068045391396350480000014305247880753671606_" gradientUnits="userSpaceOnUse" x1="-3188.8191" y1="-241.8595" x2="-3188.136" y2="-241.1355" gradientTransform="matrix(526.235 0 0 307.3511 1677273.875 74127.7031)">
			<stop  offset="0" style="stop-color:#6A86BD"/>
			<stop  offset="0.58" style="stop-color:#B167AA"/>
			<stop  offset="1" style="stop-color:#795AA6"/>
		</linearGradient>
		<path id="패스_565" style="fill:url(#패스_565_00000181068045391396350480000014305247880753671606_);" d="M-859.3-163.5
			l135.2-77.9c0,0,18-12.2,42.9,1.3S-349.9-50-349.9-50c2.7,2.6,4,6.3,3.5,9.9c-0.1,2.8-2.8,6.3-7.1,10.1l-137.9,85.8
			c0,0-23.6,11.4-43.4,0L-865-134.9C-865.1-134.8-885.2-150.7-859.3-163.5z"/>
		<path id="패스_566" class="st5" d="M-800.7-84.5c-0.5,0.8-1.5,1.1-2.4,0.6l0,0l-40.6-23.7c-0.8-0.5-1.1-1.6-0.6-2.4l0,0l0.4-0.6
			c0.5-0.8,1.6-1.1,2.4-0.6l40.6,23.7c0.8,0.5,1.1,1.6,0.6,2.4l0,0L-800.7-84.5z"/>
		
			<linearGradient id="패스_567_00000083084568805865165640000018419825953847618180_" gradientUnits="userSpaceOnUse" x1="-3187.239" y1="-236.301" x2="-3186.103" y2="-236.301" gradientTransform="matrix(44.4581 0 0 27.8203 140843.6719 6477.2153)">
			<stop  offset="0" style="stop-color:#4551A3"/>
			<stop  offset="1" style="stop-color:#524A9E"/>
		</linearGradient>
		<path id="패스_567" style="fill:url(#패스_567_00000083084568805865165640000018419825953847618180_);" d="M-801-83.7
			c-0.5,0.8-1.6,1.1-2.4,0.6l0,0l-40.6-23.7c-0.8-0.5-1.1-1.5-0.6-2.4l0,0l0.3-0.6c0.5-0.8,1.6-1.1,2.4-0.6l40.6,23.7
			c0.8,0.5,1.1,1.5,0.6,2.4l0,0L-801-83.7z"/>
		<path id="패스_568" class="st5" d="M-750.8-53.8c-0.5,0.8-1.5,1.1-2.4,0.6l0,0l-40.6-23.7c-0.8-0.5-1.1-1.6-0.6-2.4l0,0l0.4-0.6
			c0.5-0.8,1.6-1.1,2.4-0.6l0,0l40.6,23.7c0.8,0.5,1.1,1.6,0.6,2.4l0,0L-750.8-53.8z"/>
		
			<linearGradient id="패스_569_00000030477336533567218170000003371984703866358957_" gradientUnits="userSpaceOnUse" x1="-3187.0435" y1="-236.3014" x2="-3185.9075" y2="-236.3014" gradientTransform="matrix(44.4503 0 0 27.8253 140868.625 6509.1064)">
			<stop  offset="0" style="stop-color:#4551A3"/>
			<stop  offset="1" style="stop-color:#524A9E"/>
		</linearGradient>
		<path id="패스_569" style="fill:url(#패스_569_00000030477336533567218170000003371984703866358957_);" d="M-751.2-53
			c-0.5,0.8-1.6,1.1-2.4,0.6l0,0l-40.6-23.7c-0.8-0.5-1.1-1.6-0.6-2.4l0,0l0.4-0.6c0.5-0.8,1.6-1.1,2.4-0.6l40.6,23.7
			c0.8,0.5,1.1,1.6,0.6,2.4L-751.2-53z"/>
		<g id="그룹_273" transform="translate(513.578 297.495)" class="st8">
			<path id="패스_570" class="st9" d="M-952.9-249.8c-1.1-1.6-3.2-2.1-4.9-1.1c-1.3,1.1-1.5,3.1-0.4,4.4s3.1,1.5,4.4,0.4
				C-952.7-247.1-952.4-248.6-952.9-249.8z"/>
			<g id="그룹_272">
				<g id="그룹_271" class="st0">
					<path id="패스_571" class="st10" d="M-952.9-249.8c-1.1-1.6-3.2-2.1-4.9-1.1c-1.3,1.1-1.5,3.1-0.4,4.4s3.1,1.5,4.4,0.4
						C-952.7-247.1-952.4-248.6-952.9-249.8z"/>
				</g>
			</g>
		</g>
		<g id="그룹_276" transform="translate(520.934 289.913)" class="st8">
			<path id="패스_572" class="st9" d="M-950.7-248c-0.4-2.3-2.5-3.8-4.7-3.5c-2.3,0.4-3.8,2.5-3.5,4.7s2.5,3.8,4.7,3.5
				c0.4-0.1,0.7-0.2,1.1-0.3C-951.2-244.1-950.2-246.1-950.7-248z"/>
			<g id="그룹_275">
				<g id="그룹_274" class="st0">
					<path id="패스_573" class="st10" d="M-950.7-248c-0.4-2.3-2.5-3.8-4.7-3.5c-2.3,0.4-3.8,2.5-3.5,4.7s2.5,3.8,4.7,3.5
						c0.4-0.1,0.7-0.2,1.1-0.3C-951.2-244.1-950.2-246.1-950.7-248z"/>
				</g>
			</g>
		</g>
		<g id="그룹_279" transform="translate(531.503 286.258)" class="st8">
			<path id="패스_574" class="st9" d="M-951.7-250.1c-1.5-1.7-4.1-1.9-5.9-0.4c-1.1,0.9-1.6,2.4-1.4,3.8c1.5,1.8,4.1,2,5.8,0.5
				C-951.9-247.1-951.4-248.5-951.7-250.1L-951.7-250.1z"/>
			<g id="그룹_278">
				<g id="그룹_277" class="st0">
					<path id="패스_575" class="st10" d="M-951.7-250.1c-1.5-1.7-4.1-1.9-5.9-0.4c-1.1,0.9-1.6,2.4-1.4,3.8c1.5,1.8,4.1,2,5.8,0.5
						C-951.9-247.1-951.4-248.5-951.7-250.1L-951.7-250.1z"/>
				</g>
			</g>
		</g>
		<g id="그룹_282" transform="translate(555.483 270.692)" class="st8">
			<path id="패스_576" class="st9" d="M-950.6-247.9c-0.3-2.3-2.5-3.8-4.7-3.5c-2.3,0.3-3.8,2.5-3.5,4.7s2.5,3.8,4.7,3.5
				c0.4-0.1,0.8-0.2,1.1-0.3C-951.2-244.1-950.1-246.1-950.6-247.9z"/>
			<g id="그룹_281">
				<g id="그룹_280" class="st0">
					<path id="패스_577" class="st10" d="M-950.6-247.9c-0.3-2.3-2.5-3.8-4.7-3.5c-2.3,0.3-3.8,2.5-3.5,4.7s2.5,3.8,4.7,3.5
						c0.4-0.1,0.8-0.2,1.1-0.3C-951.2-244.1-950.1-246.1-950.6-247.9z"/>
				</g>
			</g>
		</g>
		<g id="그룹_285" transform="translate(565.962 267.04)" class="st8">
			<path id="패스_578" class="st9" d="M-951.6-250c-1.5-1.7-4.1-2-5.9-0.5c-1.1,0.9-1.6,2.4-1.4,3.8c1.5,1.7,4.1,2,5.9,0.5
				C-951.9-247.2-951.4-248.6-951.6-250z"/>
			<g id="그룹_284">
				<g id="그룹_283" class="st0">
					<path id="패스_579" class="st10" d="M-951.6-250c-1.5-1.7-4.1-2-5.9-0.5c-1.1,0.9-1.6,2.4-1.4,3.8c1.5,1.7,4.1,2,5.9,0.5
						C-951.9-247.2-951.4-248.6-951.6-250z"/>
				</g>
			</g>
		</g>
		<g id="그룹_288" transform="translate(574.633 259.227)" class="st8">
			<path id="패스_580" class="st9" d="M-950.7-248c-0.4-2.3-2.5-3.8-4.7-3.5c-2.3,0.4-3.8,2.5-3.5,4.7s2.5,3.8,4.7,3.5
				c0.4-0.1,0.7-0.2,1.1-0.3C-951.2-244.1-950.2-246.1-950.7-248L-950.7-248z"/>
			<g id="그룹_287">
				<g id="그룹_286" class="st0">
					<path id="패스_581" class="st10" d="M-950.7-248c-0.4-2.3-2.5-3.8-4.7-3.5c-2.3,0.4-3.8,2.5-3.5,4.7s2.5,3.8,4.7,3.5
						c0.4-0.1,0.7-0.2,1.1-0.3C-951.2-244.1-950.2-246.1-950.7-248L-950.7-248z"/>
				</g>
			</g>
		</g>
	</g>
	<path id="logo-shadow" style="filter: blur(2px)" class="st11" d="M-527.4-107.8c0.3-3.6-1.9-7.3-6.5-9.9l-45.1-25.9l-17.3-10c-15.9-9.2-43.8-9.3-60.4,0.4
		c-8.2,4.8-12.2,10.9-12.2,17.1v-0.1v0.2v0.1v8.1c0,6.3,4.2,12.7,12.6,17.6l6,3.4l-22.3,7.5c-6.8,2.3-10.5,6.4-10.5,10.6l0,0v8.5
		c0.1,2.4,1.1,4.6,2.9,6.2l23.2,23c1,1,2.1,1.8,3.4,2.5c6.6,3.8,17.2,4.8,25.7,1.9l39.7-13.3c6.6-2.2,10.4-6.2,10.5-10.3l0,0
		c4.7,0.2,9.4-0.9,13.6-3.2l31-18c3.9-2.3,5.9-5.4,5.9-8.5v-8.5C-527.4-108.2-527.4-108-527.4-107.8z">
		<animateTransform
			additive="sum"
			attributeName="transform"
			type="translate"
			begin="0s"
			dur="4.5s"
			keyTimes="0; 0.1;0.49; 0.5; 0.51; 0.9;1"
			values="0 0; 0 3; 0 5; 0 15; 0 5; 0 3; 0 0"
			repeatCount="indefinite"
			calcMode="paced"
		/>
		<animate attributeName="fill-opacity" attributeType="CSS"
			begin="0s" dur="4.5s" fill="freeze" repeatCount="indefinite"
			values="1; 0.8; 0.3; 0.8;1;"
		/>
	</path>
	<g id="logo">
		<path id="패스_584" class="st12" d="M-534-120.7c8.3,4.8,9,12.9,0.7,17.8l-31,18.1c-4.2,2.2-8.9,3.3-13.6,3.2
			c0-2.5-1-4.8-2.9-6.5l-23.2-23c-1-1-2.1-1.8-3.4-2.5c-6.7-3.9-17.2-4.8-25.6-1.9l-8,2.7l-15.4-8.7c-16.5-9.7-17-24.9-0.4-34.6
			c16.6-9.7,44.5-9.6,60.4-0.4l17.3,10L-534-120.7z"/>
		<path id="패스_585" class="st13" d="M-624.7-145.8c2.2,1.3,2.2,3.3,0,4.6c-2.5,1.3-5.4,1.3-7.9,0c-2.2-1.3-2.2-3.3,0-4.6
			C-630.1-147.1-627.2-147.1-624.7-145.8z"/>
		<path id="패스_586" class="st13" d="M-629.4-93.7c2.2,1.3,2.2,3.3,0,4.6c-2.5,1.3-5.4,1.3-7.9,0c-2.2-1.3-2.2-3.3,0-4.6
			C-634.9-95-631.9-95-629.4-93.7L-629.4-93.7z"/>
		
			<linearGradient id="패스_587_00000074444074023176111540000015054638807806502056_" gradientUnits="userSpaceOnUse" x1="-3188.4768" y1="-239.5987" x2="-3187.4763" y2="-239.5987" gradientTransform="matrix(141.5421 0 0 66.0602 450634.8125 15721.6992)">
			<stop  offset="0" style="stop-color:#2E323B"/>
			<stop  offset="0.24" style="stop-color:#0F1620"/>
			<stop  offset="0.62" style="stop-color:#0F1524"/>
			<stop  offset="0.71" style="stop-color:#133054"/>
			<stop  offset="0.86" style="stop-color:#123357"/>
			<stop  offset="1" style="stop-color:#3A5580"/>
		</linearGradient>
		<path id="패스_587" style="fill:url(#패스_587_00000074444074023176111540000015054638807806502056_);" d="M-533.3-102.9
			l-31,18c-4.2,2.2-8.9,3.3-13.6,3.2l-63-31.3l-15.4-8.7c-8.4-4.9-12.6-11.3-12.6-17.6v8.5c0,6.3,4.2,12.7,12.6,17.6l15.4,8.7
			l63.1,31.3c4.7,0.2,9.4-0.9,13.6-3.2l31-18c3.9-2.3,5.9-5.4,5.9-8.5v-8.5C-527.4-108.3-529.3-105.2-533.3-102.9z"/>
		
			<linearGradient id="패스_591_00000085940458440679414650000002385044718307185285_" gradientUnits="userSpaceOnUse" x1="-3188.2468" y1="-238.3818" x2="-3187.2468" y2="-238.3818" gradientTransform="matrix(105.248 0 0 43.8304 334873.4062 10378.46)">
			<stop  offset="0" style="stop-color:#4B6676"/>
			<stop  offset="0.24" style="stop-color:#466476"/>
			<stop  offset="0.35" style="stop-color:#305C75"/>
			<stop  offset="0.42" style="stop-color:#2C5A73"/>
			<stop  offset="0.53" style="stop-color:#59A4CE"/>
			<stop  offset="0.86" style="stop-color:#61AED8"/>
			<stop  offset="1" style="stop-color:#8ACDF1"/>
		</linearGradient>
		<path id="패스_591" style="fill:url(#패스_591_00000085940458440679414650000002385044718307185285_);" d="M-683.2-91.8v8.5
			c0.1,2.4,1.1,4.6,2.9,6.2l23.2,23c1,1,2.1,1.8,3.4,2.5c6.6,3.8,17.2,4.8,25.7,1.9l39.7-13.3c6.6-2.2,10.4-6.2,10.5-10.3v-8.5
			C-577.9-81.7-683.1-89.4-683.2-91.8z"/>
		<path id="패스_589" class="st16" d="M-577.9-81.7c-0.2,4.1-3.9,8.1-10.5,10.3L-628.1-58c-8.5,2.9-19,1.9-25.7-1.9
			c-1.2-0.7-2.3-1.6-3.4-2.5l-23.2-23c-5.9-5.9-2.5-13.4,7.6-16.8l31.7-10.7l8-2.7c8.5-2.9,19-1.9,25.7,1.9c1.2,0.7,2.4,1.5,3.4,2.5
			l23.2,23C-578.9-86.6-577.9-84.2-577.9-81.7L-577.9-81.7z"/>
		<path id="패스_588" class="st13" d="M-603-78c-8.3,8.9-27.6,12.3-43.1,7.5c-2.6-0.8-5.1-1.9-7.4-3.2
			c-9.7-5.6-12.4-14.5-5.6-21.8c8.3-8.9,27.6-12.3,43.1-7.5c2.6,0.8,5.1,1.9,7.4,3.2C-598.8-94.1-596.2-85.3-603-78z"/>
		<path id="패스_590" class="st10" d="M-619.7-92.4c6.2,3.6,6.3,9.4,0.1,13c-7.1,3.6-15.4,3.6-22.5,0c-6.2-3.6-6.3-9.4,0-13
			C-635.1-96-626.8-96-619.7-92.4z M-637.3-89.1c2.5,1.3,5.4,1.3,7.9,0c2.2-1.3,2.2-3.3,0-4.6c-2.5-1.3-5.4-1.3-7.9,0
			C-639.5-92.5-639.5-90.4-637.3-89.1"/>
		<path id="패스_583" class="st13" d="M-594.5-133.8c-4,9.9-21.2,16-38.3,13.6c-5.3-0.6-10.4-2.3-15.1-4.9
			c-7.6-4.4-11.2-10.9-8.5-17.3c4-9.9,21.2-16,38.3-13.6c5.3,0.7,10.4,2.3,15.1,4.9C-595.5-146.8-591.9-140.3-594.5-133.8z"/>
		<path id="패스_582" class="st10" d="M-615-144.6c6.2,3.6,6.3,9.4,0.1,13c-7.1,3.6-15.4,3.6-22.5,0c-6.2-3.6-6.3-9.4,0-13
			C-630.4-148.1-622.1-148.1-615-144.6z M-632.6-141.2c2.5,1.3,5.4,1.3,7.9,0c2.2-1.3,2.2-3.3,0-4.6c-2.5-1.3-5.4-1.3-7.9,0
			C-634.8-144.6-634.8-142.5-632.6-141.2"/>
		<animateTransform
			additive="sum"
			attributeName="transform"
			type="translate"
			begin="0s"
			dur="4.5s"
			keyTimes="0; 0.1;0.49; 0.5; 0.51; 0.9;1"
			values="0 0; 0 -3; 0 -5; 0 -15; 0 -5; 0 -3; 0 0"
			repeatCount="indefinite"
			calcMode="paced"
		/>
	</g>
	<g id="whm">
		<path id="패스_592" class="st13" d="M-564.1-38.1c-0.5,0.8-1.2,1.4-2,1.9c-1.7,1-3.7,1.5-5.7,1.4c-2,0-4-0.5-5.8-1.6l-0.3-0.2
			c-1-0.5-1.9-1.3-2.5-2.2c-0.5-0.7-0.6-1.6-0.3-2.4c0.4-0.9,1.1-1.6,2-2c1.6-0.9,3.4-1.4,5.3-1.3c2,0.1,4,0.7,5.7,1.8l1.1,0.6
			l-7.7,4.5c1,0.5,2.2,0.8,3.3,0.8s2.1-0.2,3-0.8c1.2-0.7,1.7-1.6,1.5-2.6h2.8C-563.6-39.4-563.7-38.7-564.1-38.1z M-576.4-38.7
			l5.1-2.9h-0.2c-0.8-0.5-1.8-0.7-2.7-0.8c-0.8,0-1.7,0.2-2.4,0.6c-0.7,0.4-1.1,0.9-1,1.5C-577.5-39.6-577-39-576.4-38.7"/>
		<g id="그룹_290" transform="translate(337.458 210.107)">
			<path id="패스_593" class="st13" d="M-939.3-243.2c0.3,0.1,0.6,0.4,0.6,0.8c0,0.3-0.2,0.6-0.7,0.9c-0.4,0.3-1,0.4-1.5,0.4
				s-1-0.1-1.4-0.4c-0.3-0.1-0.6-0.4-0.6-0.8c0-0.3,0.2-0.6,0.7-0.9c0.5-0.3,1-0.4,1.5-0.4C-940.2-243.6-939.8-243.4-939.3-243.2z"
				/>
			<path id="패스_594" class="st13" d="M-915.6-241c0.1,1.2-0.6,2.3-1.7,2.7c-1.5,0.8-3.3,1.2-5,1c-2.1-0.2-4.1-0.8-5.9-1.9
				c-1.4-0.6-2.6-1.8-3.1-3.3c-0.3-1.1,0.3-2,1.7-2.9c1.3-0.7,2.8-1.1,4.3-1l-6-3.5l2.7-1.5l16.8,9.7l-2.4,1.4L-915.6-241z
				 M-921.8-239.4c1,0.1,2.1-0.1,3-0.6c1.1-0.6,1.4-1.4,0.9-2.2l-5.1-2.9c-1.3-0.3-2.6-0.1-3.8,0.5c-0.9,0.5-1.2,1.1-0.9,1.8
				s1,1.4,2.4,2.2C-924.2-240-923-239.5-921.8-239.4"/>
			<path id="패스_595" class="st13" d="M-944.9-241.1l10.3,12.5l-2.7,1.5L-959-233l3-1.8l16.5,4.9l-8.5-9.6L-944.9-241.1z"/>
		</g>
		<path id="패스_596" class="st13" d="M-599-31.2l11.9,6.8l-2.7,1.6l-11.9-6.9L-599-31.2z"/>
		<path id="패스_597" class="st13" d="M-537.2-53.3l-2.6,1.6l-7.7-4.4c-0.7-0.4-1.5-0.7-2.3-0.7c-0.7,0-1.4,0.2-2,0.6
			c-1,0.6-1.4,1.3-0.9,2.2l8.5,4.9l-2.6,1.6l-16.9-9.7l2.6-1.6l6.3,3.6c-0.1-1.1,0.4-2,1.8-2.8c2.6-1.5,5.7-1.4,8.2,0.3L-537.2-53.3
			z"/>
		<path id="패스_598" class="st13" d="M-552.2-45.2c-0.4,0.9-1.1,1.6-2,2.1c-1.7,1-3.7,1.4-5.7,1.3c-2.1,0-4.2-0.6-6-1.7h-0.1
			c-1-0.5-1.8-1.3-2.5-2.2c-0.5-0.7-0.6-1.6-0.2-2.4c0.4-0.9,1.2-1.6,2-2c1.6-0.9,3.5-1.4,5.4-1.3c2,0,4,0.5,5.7,1.4l0.6,0.4
			c1,0.5,1.8,1.3,2.5,2.2C-552.1-46.7-552-45.9-552.2-45.2z M-559.6-43.7c1.1,0.1,2.2-0.1,3.1-0.6c0.9-0.5,1.2-1.1,1-1.8
			s-1-1.4-2.3-2.2c-1.1-0.7-2.3-1.1-3.6-1.2c-1.1-0.1-2.2,0.1-3.2,0.6c-0.8,0.5-1.2,1.1-1,1.8s0.9,1.4,2.3,2.2
			C-562.1-44.2-560.9-43.8-559.6-43.7"/>
		<g id="그룹_291" transform="translate(415.124 174.928)">
			<path id="패스_599" class="st13" d="M-930.4-242.2l5.6,3.3l-2.6,1.5l-16.5-9.5l2.5-1.4l1.3,0.6c-0.2-1,0.4-1.9,1.8-2.7
				c1.5-0.8,3.3-1.2,5-1c2,0.2,4,0.8,5.7,1.9h0.2c1.4,0.6,2.6,1.8,3.2,3.3c0.3,1.1-0.3,2-1.7,2.9
				C-927.3-242.6-928.9-242.2-930.4-242.2z M-932.6-243.5c1.3,0.3,2.6,0.1,3.7-0.6c0.8-0.5,1.2-1.1,1-1.8s-1-1.4-2.4-2.2
				c-1.1-0.7-2.3-1.1-3.5-1.2c-1.1-0.1-2.1,0.1-3.1,0.6c-1.1,0.6-1.4,1.3-1,2.1L-932.6-243.5"/>
			<path id="패스_600" class="st13" d="M-942.2-234.6c-0.5,0.8-1.2,1.4-2,1.9c-1.7,1-3.7,1.5-5.7,1.4c-2,0-4-0.5-5.8-1.6l-0.3-0.2
				c-1-0.5-1.9-1.3-2.5-2.2c-0.5-0.7-0.6-1.6-0.3-2.4c0.4-0.9,1.1-1.6,2-2c1.6-0.9,3.4-1.4,5.3-1.3c2,0.1,4,0.7,5.7,1.8l1.1,0.6
				l-7.8,4.5c1,0.5,2.1,0.8,3.3,0.8c1.1,0,2.1-0.2,3-0.8c1.2-0.7,1.7-1.6,1.5-2.6h2.8C-941.7-235.9-941.8-235.2-942.2-234.6
				L-942.2-234.6z M-954.4-235.2l5-2.9l-0.2-0.1c-0.8-0.5-1.8-0.7-2.7-0.8c-0.8,0-1.7,0.2-2.4,0.6c-0.7,0.4-1,0.9-1,1.5
				C-955.5-236.2-955.1-235.6-954.4-235.2"/>
		</g>
		<path id="패스_601" class="st13" d="M-519.7-63.5l-2.7,1.6l-16.9-9.8l2.7-1.5L-519.7-63.5z"/>
		<path id="패스_602" class="st13" d="M-502.4-75.2c0.3,0.1,0.6,0.5,0.6,0.8s-0.2,0.6-0.7,0.9s-1,0.4-1.5,0.4s-1-0.1-1.5-0.4
			c-0.4-0.1-0.6-0.5-0.7-0.8c0-0.3,0.2-0.6,0.7-0.9s1-0.4,1.5-0.4C-503.4-75.6-502.9-75.4-502.4-75.2L-502.4-75.2z"/>
		<path id="패스_603" class="st13" d="M-481.4-85.8l-2.6,1.6l-7.8-4.5c-0.6-0.4-1.4-0.6-2.1-0.7c-0.8,0-1.5,0.2-2.2,0.6
			c-0.5,0.2-0.8,0.6-1,1.1c0,0.5,0.1,0.9,0.5,1.2l8.1,4.7l-2.6,1.6l-7.8-4.5c-1.3-0.8-2.9-0.8-4.2,0c-1.1,0.6-1.4,1.3-0.9,2l8.6,5
			l-2.6,1.5l-11.9-6.8l2.5-1.4l1.3,0.7c-0.1-1,0.5-2,2-2.8c1.5-0.9,3.3-1.2,5.1-0.8c-0.4-1.2,0.2-2.3,1.8-3.1c1.2-0.7,2.6-1.1,4-1.1
			c1.5,0.1,2.9,0.5,4.2,1.3L-481.4-85.8z"/>
		<path id="패스_604" class="st13" d="M-471.2-92.1c-0.5,0.8-1.2,1.4-2,1.9c-1.7,1-3.7,1.5-5.7,1.4c-2,0-4.1-0.5-5.8-1.6l-0.3-0.2
			c-1-0.5-1.9-1.3-2.5-2.2c-0.5-0.7-0.6-1.6-0.3-2.4c0.4-0.9,1.1-1.6,2-2c1.6-0.9,3.4-1.4,5.3-1.3c2,0.1,4,0.7,5.7,1.8l1.1,0.6
			l-7.7,4.5c1,0.5,2.2,0.8,3.3,0.8c1,0,2.1-0.2,3-0.7c1.2-0.7,1.7-1.6,1.5-2.6h2.8C-470.6-93.4-470.8-92.7-471.2-92.1L-471.2-92.1z
			 M-483.4-92.7l5.1-2.9l-0.2-0.1c-0.8-0.5-1.8-0.7-2.7-0.7c-0.8,0-1.7,0.2-2.4,0.6c-0.7,0.4-1,0.9-1,1.4
			C-484.5-93.8-484.1-93.1-483.4-92.7"/>
	</g>
	<animateTransform
		additive="sum"
		attributeName="transform"
		type="translate"
		begin="0s"
		dur="4.5s"
		keyTimes="0; 0.1;0.5;0.9;1"
		values="0 0; 0 -10; 0 -20; 0 -10; 0 0"
		repeatCount="indefinite"
		calcMode="paced"
	/>
</g>
<g id="girl" transform="translate(1474.726 251.466)">
	<path id="girlfield-shadow" style="filter: blur(12px)" class="st17" d="M-678.2-17.9c10.6,6,10.6,16,0,22.1l-86.1,49.7c-10.5,6-27.7,6-38.3,0l-86.1-49.7
		c-10.6-6-10.6-16.1,0-22.1l86.1-49.7c10.6-6,27.7-6,38.3,0L-678.2-17.9z">
		<animateTransform
			additive="sum"
			attributeName="transform"
			type="translate"
			begin="0s"
			dur="3.5s"
			keyTimes="0; 0.1;0.5;0.9;1"
			values="0 0; 0 -5; 0 -10; 0 -5; 0 0"
			repeatCount="indefinite"
			calcMode="paced"
		/>
		<animate attributeName="fill-opacity" attributeType="CSS"
			begin="0s" dur="3.5s" fill="freeze" repeatCount="indefinite"
			values="0.5; 0.8; 1; 0.8;0.5;"
		/>
	</path>
	<g id="girl-field">
		
			<linearGradient id="패스_605_00000114069284147145855600000002608959598320017820_" gradientUnits="userSpaceOnUse" x1="-3913.989" y1="-240.785" x2="-3912.989" y2="-240.785" gradientTransform="matrix(226.298 0 0 130.587 884831.3125 31344.6484)">
			<stop  offset="0" style="stop-color:#F385AB"/>
			<stop  offset="0.33" style="stop-color:#E992B9"/>
			<stop  offset="0.5" style="stop-color:#B3ADD6"/>
			<stop  offset="0.69" style="stop-color:#7889C4"/>
			<stop  offset="1" style="stop-color:#5D79BC"/>
		</linearGradient>
		<path id="패스_605" style="fill:url(#패스_605_00000114069284147145855600000002608959598320017820_);" d="M-670.3-108.4
			c-0.1,7.3,0,5.5,0,9.5s-2.6,8.1-7.9,11.1L-764.3-38c-10.6,6-27.7,6-38.3,0l-86.1-49.7c-5.3-3-7.9-7-7.9-11v-8.8l94-52
			c10.6-6,27.7-6,38.3,0L-670.3-108.4z"/>
		
			<linearGradient id="패스_606_00000150786833647442841720000013360359116115059099_" gradientUnits="userSpaceOnUse" x1="-3913.1426" y1="-240.2049" x2="-3912.4595" y2="-239.0589" gradientTransform="matrix(226.3136 0 0 130.634 884892.25 31347.9707)">
			<stop  offset="0" style="stop-color:#AFE1F2"/>
			<stop  offset="1" style="stop-color:#7853A2"/>
		</linearGradient>
		<path id="패스_606" style="fill:url(#패스_606_00000150786833647442841720000013360359116115059099_);" d="M-678.2-117.9
			c10.6,6,10.6,16,0,22.1l-86.1,49.7c-10.5,6-27.7,6-38.3,0l-86.1-49.7c-10.6-6-10.6-16.1,0-22.1l86.1-49.7c10.6-6,27.7-6,38.3,0
			L-678.2-117.9z"/>
		
			<linearGradient id="girl-shadow_00000073710704402286770850000007451517790114162835_" gradientUnits="userSpaceOnUse" x1="-3913.2402" y1="-238.1514" x2="-3912.2341" y2="-238.1514" gradientTransform="matrix(80.861 0 0 41.196 315566.875 9734.1865)">
			<stop  offset="0" style="stop-color:#8478B8"/>
			<stop  offset="1" style="stop-color:#5075BA"/>
		</linearGradient>
		
			<path id="girl-shadow" style="opacity:0.5;fill:url(#girl-shadow_00000073710704402286770850000007451517790114162835_);enable-background:new    ;" d="
			M-780.3-76.7c0-11.4-18.2-20.6-40.7-20.6c-20.3,0-37.1,7.5-40.2,17.3l41.1,23.9C-798-56.3-780.3-65.4-780.3-76.7z"/>
		<path id="패스_647_00000059287033097524328960000005642326222982589080_" class="st21" d="M-677.8-96.1l-86.2,49.8
			c-5.2,2.9-12,4.6-18.9,4.6c-7.2,0.1-14.4-1.5-19.8-4.6l-86-49.6l86.2,48c6.1,3.1,12.8,4.8,19.6,5c6.3-0.1,12.5-1.7,18.1-4.6
			L-677.8-96.1z"/>
	</g>
	<g id="girl-foot">
		<path id="패스_609" class="st22" d="M-865.6-31.6c0,0,0.9,6.7-1.1,10.7c-1.6,2.9-3.7,5.7-6,8.1l4,3l10.1-10.1l1-14.1
			L-865.6-31.6z"/>
		<path id="패스_612" class="st23" d="M-820.5-99.3l-38.3,13.9c0,0-6.5-0.8-6.5,10.5s-1.2,43.3-1.2,43.3s0,1.6,3.2,1.6
			s4.7,0.7,5.5-0.9c1.9-8,3.2-16,4-24.2c0.3-5.1,1.1-10.2,2.5-15.2l37.5-18.3L-820.5-99.3z"/>
		<path id="패스_622" class="st24" d="M-858.3-25.4c0,0-4.3,10-8.7,11.7c-4.3,1.7-5.5-0.5-5.5-0.5l-5.4,4.4c0,0-2.4,4.7,1,5
			c3.2,0.1,6.4-0.6,9.2-2c2-1.3,3.6-3,4.9-5c0.9-2,2.3-4.8,2.1-3.4l-0.7,8.2l2,0.2c0,0,2.4-11.5,2-14.3
			C-857.7-23.9-857.6-25.3-858.3-25.4z"/>
		<animateTransform
			additive="sum"
			attributeName="transform"
			type="rotate"
			begin="0s"
			dur="5.5s"
			keyTimes="0; 0.2; 0.5; 0.7; 1"
			calcMode="paced"
			values="5 -800 -80; 2 -800 -80; -5 -800 -80; 2 -800 -80; 5 -800 -80"
			repeatCount="indefinite"
		/>
	</g>
	<path id="패스_610" class="st22" d="M-852.7-21.1c1.2,3.1,0.9,6.5-0.9,9.3c-3,5-6,9-6,9s5.4,1.2,6,2s8.1-10.1,8.1-10.1v-10.3
		L-852.7-21.1z"/>
	<path id="패스_611" class="st23" d="M-791.4-83.2c0,0,0.8,6-2,9s-31.2,11.1-34.4,11.9c-2.6,0.9-5.1,2.3-7.2,4
		c0,0-2,13.1-2.8,20.1c-0.7,7.1-5.2,17.2-5.8,19.1c-2,1-1.9,1.8-5.1,1.8s-5.6-0.8-4.8-6.4s2.4-39.5,2.4-39.5c0.2-2.7,1.7-5.1,4-6.4
		c2.8-1.7,5.5-3.6,8.1-5.6l27.4-14.5L-791.4-83.2z"/>
	<path id="패스_613" class="st25" d="M-832.6-92l24.2,16.1v2.4l-19.8,9.7l-3.2-2.4l-17.3-25.1l13.7-3.2L-832.6-92z"/>
	<path id="girl-hane01" class="st22" d="M-814.5-129.4l-8.1-2c-1.1,4.5-2.2,8.9-3.5,13.3c-0.5,2.3-1.3,4.5-2.3,6.7
		c-1.3,2.6-2.8,5.1-4.3,7.6c-1.1,2.1-2.5,4.2-4,6c-0.8,0.8-3.2,2.4-4,3.2c-0.8,1.2-0.8,2.8,0,4c1.5,2.1,3.4,3.7,5.6,4.9
		c0.9,0,1.5-2.5,1.7-3.2c0.3-1.4,0.7-2.8,1.2-4.1c2.1-5.2,4.8-10.1,8.1-14.7c1.8-2.8,3.3-5.9,4.5-9.1c1.2-2.9,2.4-5.9,3.6-8.8
		L-814.5-129.4z">
		<animateTransform
			additive="sum"
			attributeName="transform"
			type="rotate"
			begin="0s"
			dur="2.5s"
			keyTimes="0; 0.2; 0.5; 0.7; 1"
			calcMode="paced"
			values="5 -810 -120; 2 -810 -120; -5 -810 -120; 2 -810 -120; 5 -810 -120"
			repeatCount="indefinite"
		/>
	</path>
	<path id="패스_615" class="st25" d="M-868.8-112.2l33,22.6l6,25l-35-22.7L-868.8-112.2z"/>
	<path id="패스_616" class="st26" d="M-780.6-136.9c-0.3-0.8-0.7-1.7-1.1-2.4c-1.7-3.5-6.4-4.7-9.7-6c-4.5-2-7.2-1.5-12.1-2
		c0,0-9.2,1.3-11.1,2c-2.6,1.7-4.7,4.2-6,7c-1,3-3,8.1-3,8.1l5.3,2.4c-0.2,1.9,0.1,3.9,0.7,5.7c3.1,5.6,3.1,12.5,0,18.1
		c-1.1,2.2-5.5,8.2-4.7,9s5.6,6.4,6.4,6.4s17.3,6.6,21.3,6.6s4,0,4-4s6.9-21.1,7.7-23.6c1.1-3.2,1.7-6.6,2.5-9.9
		c0.2-0.7,0.5-1.4,0.8-2C-777.6-126.6-778.7-132.1-780.6-136.9z"/>
	<path id="girl-hand02" class="st22" d="M-789.3-117.3c-1.1,4.6-2.3,7.1-3.7,11.5c-0.5,2.6-1.9,5-3.8,6.8c-2.4,1.9-5,3.5-7.5,5.1
		c-2.2,1.7-4.7,3-7.3,3.9c-3.2,0.7-6.4,1.7-9.5,2.7c-1.4,0.4-2.7,1.1-3.7,2.1c-0.7,0.6-2.7,1.7-2.7,2.8s-1.1,1.7-1,2.6
		c0.1,1,2.3,1.6,3.3,2c2.8,1,5.8,0.6,8.2-1.1c2.6-1.6,5-3.4,7.1-5.5c2.1-1.9,4.7-3.2,7.5-3.8c2.3-0.7,4.6-1.7,6.7-2.9
		c2.2-0.9,4.2-2.3,5.7-4.2c2-3,8.1-20.1,8.1-20.1L-789.3-117.3z">
		<animateTransform
			additive="sum"
			attributeName="transform"
			type="rotate"
			begin="0s"
			dur="3.5s"
			keyTimes="0; 0.2; 0.5; 0.7; 1"
			calcMode="paced"
			values="5 -780 -120; 2 -780 -120; -5 -780 -120; 2 -780 -120; 5 -780 -120"
			repeatCount="indefinite"
		/>
	</path>
	<g id="girl-head">
		<path id="패스_618" class="st27" d="M-802.9-150v5.6c0,0,0.4,3.5,4.4,2s4.2-2.5,4-5c0-2.8,0.4-5.6,1.2-8.2L-802.9-150z"/>
		<path id="패스_619" class="st22" d="M-807.7-170.9c-1.7,2.4-1.5,9.7-1.5,9.7v5.6c0,2.4,1.5,7.2,3,8.1c1.5,0.8,9.2-0.5,10.7-2.9
			c2.2-2.6,4.6-5,7.3-7l1-5l-13.8-12.1C-801.1-174.6-806.1-173.4-807.7-170.9z"/>
		<path id="패스_620" class="st24" d="M-788.3-171.6c3.5-3,5.3-4.2,3.2-9s-7.3-4.3-10.5-3.5c-3.1,0.9-3.6,6.4-3.6,6.4
			c-2.7-1.3-4.4-0.1-8.7,2.8c-1.2,0.8-2.6,1.3-3.3,2.6c-0.5,0.9-0.8,2-0.7,3c0,0.7-0.2,1.4-0.6,2c-0.4,0.7-0.6,1.4-0.8,2.2
			c-0.4,1.5-0.4,3.2,0,4.7c0.5,1.1,0.8,2.2,1,3.3c-0.1,0.8-0.1,1.7,0,2.5c0.2,1,0.9,1.8,1.8,2.2c-0.3-0.7,0.2-1.5,0.2-2.3
			c0.1-0.8-0.3-1.6-0.3-2.3c0.1-0.8,0.2-1.6,0.3-2.4c-0.1-0.9-0.8-1.9-0.6-2.8c0.2-0.9,0.7-1.1,1-1.7c0.5-1,0-2.3,0.4-3.4
			c0.3-0.5,0.8-1,1.4-1.2c1.8-0.6,3.5-1.4,5-2.5c0.1-0.1,0.6-0.5,0.7-0.7c-1.2,6.4,8.1,10.3,8.1,10.3c-0.8,8.1,1.8,8.2,1.8,8.2
			s0.7,0.1,0.1-0.7c-0.6-0.8,1.3-7.2,1.3-7.2s0.5-2.9,2.3-0.3c1.8,2.6-0.9,5-0.9,5c5.6-2,4.4-8.3,3.4-10.3
			C-787.4-168.6-789.3-170.3-788.3-171.6z"/>
		<animateTransform
			additive="sum"
			attributeName="transform"
			type="rotate"
			begin="0s"
			dur="4.5s"
			keyTimes="0; 0.2; 0.5; 0.7; 1"
			calcMode="paced"
			values="-8 -780 -120; -5 -780 -120; 0 -780 -120; -5 -780 -120; -8 -780 -120"
			repeatCount="indefinite"
		/>
	</g>
	<path id="패스_621" class="st24" d="M-845.1-15.3c0,0-4.4,10.1-8.7,11.7s-5.5-0.5-5.5-0.5l-5.4,4.4c0,0-2.4,4.7,1,5
		c3.2,0.1,6.4-0.6,9.2-2c2-1.3,3.6-3,4.9-5c0.9-2,2.3-4.8,2.1-3.4l-0.7,8.2l2,0.2c0,0,2.4-11.5,2-14.3
		C-844.6-13.8-844.5-15.3-845.1-15.3z"/>
	<path id="패스_623" class="st28" d="M-836.6-90.2l1.2-0.5l7.1,26.9l-1.6-0.8L-836.6-90.2z"/>
	
		<ellipse id="타원_39" transform="matrix(0.3025 -0.9531 0.9531 0.3025 -508.8713 -871.7965)" class="st13" cx="-850.1" cy="-88.2" rx="2.4" ry="2.7"/>
	<path id="패스_624" class="st29" d="M-868.8-112.2l1.8-0.7l31.7,22.2l-1.2,0.5L-868.8-112.2z"/>
	<g id="girl-buble">
		
			<linearGradient id="패스_625_00000075162055297555928420000011100094067545577635_" gradientUnits="userSpaceOnUse" x1="-3912.4824" y1="-240.1" x2="-3911.5166" y2="-239.152" gradientTransform="matrix(50.236 0 0 66.324 195726.2812 15673.5186)">
			<stop  offset="0" style="stop-color:#D6C8E3"/>
			<stop  offset="0.52" style="stop-color:#A991B3"/>
			<stop  offset="0.53" style="stop-color:#AB99BB"/>
			<stop  offset="1" style="stop-color:#9A3656"/>
		</linearGradient>
		<path id="패스_625" style="fill:url(#패스_625_00000075162055297555928420000011100094067545577635_);" d="M-823-249.5l6-2
			l41.2,24.2c0,0,3,0,3,5v33.1c-0.1,0.8-0.4,1.5-1,2l-4,2l-10.4-14.7l-9.7,9.7l-4,1l2.6-26.6L-823-249.5z"/>
		
			<linearGradient id="패스_626_00000124852238549494723900000012887060996818770318_" gradientUnits="userSpaceOnUse" x1="-3912.3606" y1="-239.5299" x2="-3911.3606" y2="-239.5299" gradientTransform="matrix(46.2679 0 0 64.1993 180192.7031 15160.4482)">
			<stop  offset="0" style="stop-color:#C58FC0"/>
			<stop  offset="1" style="stop-color:#6095CF"/>
		</linearGradient>
		<path id="패스_626" style="fill:url(#패스_626_00000124852238549494723900000012887060996818770318_);" d="M-819-248.4
			c0,0,34.2,20.1,38.3,22.2c2.3,1.1,3.5,3.6,3,6v32.2c0,4-1,3-3,2l-15.6-9.3c-1.5,1.9-5.5,7.2-5.5,6.3s-4.2-9.4-6-13.2
			c-5.6-3.3-10.3-6-12-6.8c-2.2-0.8-3.7-2.7-4-5v-32.2C-824-251.5-819-248.4-819-248.4z"/>
		<ellipse id="타원_40" class="st13" cx="-790.9" cy="-212.3" rx="3.5" ry="4.5"/>
		<ellipse id="타원_41" class="st13" cx="-801.9" cy="-218.3" rx="3.5" ry="4.5"/>
		<ellipse id="타원_42" class="st13" cx="-813" cy="-224.3" rx="3.5" ry="4.5"/>
		<animateTransform
			additive="sum"
			attributeName="transform"
			type="rotate"
			begin="0s"
			dur="3s"
			keyTimes="0; 0.1; 0.2; 0.3; 0.4;0.5; 1"
			calcMode="paced"
			values="0 -810 -200; -5 -810 -200; 5 -810 -200; -5 -810 -200; 5 -810 -200; 0 -810 -200;0 -810 -200;"
			repeatCount="indefinite"
		/>
	</g>
	<path id="패스_627" class="st32" d="M-808.4-75.9l-20.4,9.9l0.5,2.3l19.8-9.7L-808.4-75.9z"/>
	<animateTransform
		additive="sum"
		attributeName="transform"
		type="translate"
		begin="0s"
		dur="3.5s"
		keyTimes="0; 0.1;0.5;0.9;1"
		values="0 0; 0 5; 0 10; 0 5; 0 0"
		repeatCount="indefinite"
		calcMode="paced"
	/>
</g>
<g id="main" transform="translate(958.937 491.698)">
	<path id="manfield-shadow" style="filter: blur(12px)" class="st17" d="M-670.9,111.2c10.6,6,10.6,16,0,22.1L-757,183c-10.6,6-27.7,6-38.3,0l-86.1-49.8
		c-10.6-6-10.6-16,0-22.1l86.1-49.7c10.6-6,27.7-6,38.3,0L-670.9,111.2z">
		<animateTransform
			additive="sum"
			attributeName="transform"
			type="translate"
			begin="0s"
			dur="3.5s"
			keyTimes="0; 0.1;0.5;0.9;1"
			values="0 0; 0 5; 0 10; 0 5; 0 0"
			repeatCount="indefinite"
			calcMode="paced"
		/>
		<animate attributeName="fill-opacity" attributeType="CSS"
			begin="0s" dur="3.5s" fill="freeze" repeatCount="indefinite"
			values="1; 0.8; 0.5; 0.8;1;"
		/>
	</path>
	<g id="man-buble">
		
			<linearGradient id="패스_645_00000099652208485425185640000008530491508301642403_" gradientUnits="userSpaceOnUse" x1="-2880.3789" y1="-240.0604" x2="-2880.9351" y2="-239.4313" gradientTransform="matrix(54.005 0 0 71.18 154767.1719 16851.1055)">
			<stop  offset="0" style="stop-color:#B9E5FA"/>
			<stop  offset="1" style="stop-color:#627FB3"/>
		</linearGradient>
		<path id="패스_645" style="fill:url(#패스_645_00000099652208485425185640000008530491508301642403_);" d="M-771.2-249.3
			l-6.5-2.2l-44.3,25.9c0,0-3.2,0-3.2,5.4v35.5c0.1,0.9,0.5,1.6,1.1,2.2l4.3,2.2l11.1-15.8l10.4,10.4l4.3,1l-2.7-28.5L-771.2-249.3z
			"/>
		
			<linearGradient id="패스_646_00000158006122785636973450000012696388316272283546_" gradientUnits="userSpaceOnUse" x1="-2880.9224" y1="-239.6942" x2="-2879.9224" y2="-239.6942" gradientTransform="matrix(49.739 0 0 68.7911 142474.3438 16274.0391)">
			<stop  offset="0" style="stop-color:#95D7E5"/>
			<stop  offset="1" style="stop-color:#6896CE"/>
		</linearGradient>
		<path id="패스_646" style="fill:url(#패스_646_00000158006122785636973450000012696388316272283546_);" d="M-775.5-248.2
			c0,0-36.7,21.6-41,23.7c-2.5,1.1-3.8,3.8-3.2,6.5v34.5c0,4.3,1.1,3.2,3.2,2.2c0,0,7.8-4.7,16.7-10.1c1.6,2,5.9,7.7,5.9,6.8
			s4.5-10.1,6.6-14.2c6-3.5,11-6.4,12.8-7.3c4.3-2.2,4.3-5.4,4.3-5.4V-246C-770.1-251.5-775.5-248.2-775.5-248.2z"/>
		<ellipse id="타원_43" class="st13" cx="-805.7" cy="-209.4" rx="3.8" ry="4.9"/>
		<ellipse id="타원_44" class="st13" cx="-793.8" cy="-215.9" rx="3.8" ry="4.9"/>
		<ellipse id="타원_45" class="st13" cx="-781.9" cy="-222.4" rx="3.8" ry="4.9"/>
		<animateTransform
			additive="sum"
			attributeName="transform"
			type="rotate"
			begin="0s"
			dur="3s"
			keyTimes="0; 0.1; 0.2; 0.3; 0.4;0.5; 1"
			calcMode="paced"
			values="0 -810 -200; -5 -810 -200; 5 -810 -200; -5 -810 -200; 5 -810 -200; 0 -810 -200;0 -810 -200;"
			repeatCount="indefinite"
		/>
	</g>
	<g id="man_x5F_field">
		
			<linearGradient id="패스_628_00000022542468246360887630000017102116572326885034_" gradientUnits="userSpaceOnUse" x1="-2882.4109" y1="-240.7857" x2="-2881.4109" y2="-240.7857" gradientTransform="matrix(226.322 0 0 130.594 651463.6875 31475.4199)">
			<stop  offset="0" style="stop-color:#779CD1"/>
			<stop  offset="0.35" style="stop-color:#8279B8"/>
			<stop  offset="0.5" style="stop-color:#B7B6D4"/>
			<stop  offset="0.65" style="stop-color:#5795CF"/>
			<stop  offset="1" style="stop-color:#9756A2"/>
		</linearGradient>
		<path id="패스_628" style="fill:url(#패스_628_00000022542468246360887630000017102116572326885034_);" d="M-663,20.7v9.5
			c0,4-2.6,8.1-7.9,11.1L-757,91c-10.6,6-27.7,6-38.3,0l-86.1-49.7c-5.3-3-7.9-7-7.9-11v-8.8l94-52c10.6-6,27.7-6,38.3,0L-663,20.7z
			"/>
		
			<linearGradient id="패스_629_00000149360548656068141270000007464857754657111728_" gradientUnits="userSpaceOnUse" x1="-2882.3813" y1="-240.8317" x2="-2881.4365" y2="-240.7407" gradientTransform="matrix(226.3125 0 0 130.714 651436.3125 31496.457)">
			<stop  offset="0" style="stop-color:#91CFF1"/>
			<stop  offset="0.503" style="stop-color:#75ADDD"/>
			<stop  offset="1" style="stop-color:#88D3DE"/>
		</linearGradient>
		<path id="패스_629" style="fill:url(#패스_629_00000149360548656068141270000007464857754657111728_);" d="M-670.9,11.2
			c10.6,6,10.6,16,0,22.1L-757,83.1c-10.6,6-27.7,6-38.3,0l-86.1-49.8c-10.6-6-10.6-16,0-22.1l86.1-49.7c10.6-6,27.7-6,38.3,0
			L-670.9,11.2z"/>
		<path id="man-shadow" class="st37" d="M-732.9,23.5c0,12.2-19.6,22.1-43.7,22.1c-24.1,0-43.7-9.9-43.7-22.1s19.5-22.3,43.6-22.3
			S-732.9,11.3-732.9,23.5z"/>
		<path id="패스_647" class="st21" d="M-670.7,33.2l-86,49.8c-5.2,2.9-12,4.6-18.9,4.6c-7.2,0.1-14.4-1.5-19.8-4.6l-86-49.7
			l86.2,48.2c6.1,3.1,12.8,4.8,19.6,5c6.3-0.1,12.5-1.7,18.1-4.6L-670.7,33.2z"/>
	</g>
	<g id="man">
		<path class="st38" d="M-745.7-84c-0.4-0.4-0.6-2.3-0.7-4c0.2-4.4,0.7-17.7,0.7-19.2c0-1.7-1.8-9.5-1.8-9.5s0.2-23.6,0.2-26.2
			s-0.2-5.1-2.4-5.5c-2.2-0.5-4.8-3.7-4.8-3.7l1.7,6l1.7,38c0,0-1.1,20.1,0.2,22.1l-0.2,0.2v9.5c0,0,0.4,1.5,1.3-0.2
			c0.9-1.7,1.6,0.7,1.6,1.6c-0.2,1.6-0.2,3.2,0,4.8c0.6,2.2,1.6,0.7,1.6,1.6s1.2,0,1.7-0.7c1.5-2.4,1.5-9.5,1.5-9.6
			C-743.6-80.7-744.4-82.6-745.7-84z"/>
		<path id="패스_631" class="st24" d="M-770.4,18.5c1.7,0.9,8.6,0.9,10.4,0.9c1.7,0,3.5,2.6,4.3,2.6s6.3,1.6,9.1-0.5
			c0.8-2.5,0-3.4-2.6-4.2s-8.7-4.3-10.4-7.8s-11.2-0.9-11.2-0.9c-0.8,1.6-1.4,3.4-1.7,5.2c0,0.5,0,0.9-0.1,1.4
			C-772.3,16.4-771.5,17.6-770.4,18.5L-770.4,18.5z"/>
		<path id="패스_632" class="st39" d="M-755.6,21.9c-0.9,0-2.6-2.6-4.3-2.6s-8.6,0-10.4-0.9c-1.1-0.8-1.9-2-2.3-3.4
			c-0.2,2-0.1,4.8,5.3,5.5c6.9,0.9,8.6,0.9,10.4,1.7s9.5,1.7,10.4-0.9C-749.4,23.5-754.9,21.9-755.6,21.9z"/>
		<path id="패스_633" class="st39" d="M-798.9,32.3c-1.3-0.5-2.3-1.5-2.8-2.7c0.3,2,1,3.7,2.4,4c3.5,0.9,11.2,1.7,12.1-0.9
			c0.1-0.3,0.2-0.6,0.2-0.9C-790.3,33.6-796.2,33-798.9,32.3z"/>
		<path id="패스_634" class="st24" d="M-789,24.1c-0.9-0.9-1.7-9.5-1.7-10.4s-11.2,1.7-11.2,1.7v6.9c-0.2,2.4-0.1,4.8,0.2,7.2
			c0.5,1.3,1.5,2.3,2.8,2.7c2.7,0.7,8.6,1.3,11.9-0.5C-786.9,29.1-787.6,26.4-789,24.1z"/>
		<path id="패스_639" class="st40" d="M-750.9-85.7l-40.7-1c0,0.9-5.1,58.9-6,59.8c-0.9,0.9-4.2,32-4.2,38.1s2.6,6,6.9,6.9
			c4.3,0.9,6.9-4.3,6.9-6s5.2-28.5,6-31.1s8.6-39.8,8.6-39.8s0.9-6,1.7-6s0,34.6,0.9,35.4c0.9,0.9-1.7,36.2-1.7,36.2
			c0.9,3.5,0,3.5,6,5.2s8.6-1.7,8.6-1.7l1.7-16.4v-13.8c0-1.7,4.3-38.9,5.2-40.7C-750-62.5-750.1-84.9-750.9-85.7z"/>
		<path id="패스_641_00000145043651963655132120000017877355512148599431_" class="st29" d="M-760.8-152.5c2.4-0.8,5-1.2,7.5-1
			c0,0,4.8,0.1,5.7,6.1c0.6,3.6,0.9,11.9,0.9,11.9s-0.3,0.9-0.9,0.7c-0.9,0-1.8,0.1-2.7,0.4v6.3c0,0,1,19.7,1.2,21.6
			c0,7.2-0.5,14.3-1.6,21.4c-0.3,1-16.3,2.9-16.3,2.9c-4.6,0.8-19-0.9-22.5-2.6s-2.4-4.3-2.4-4.3l0.3-10.4c0,0,4.3-8.7-0.9-6.9
			s-6.4-1.6-6.4-1.6s2-20.9,2-23.5c0.4-3.6,1.2-7.1,2.6-10.4c0.9-1.7,16.8-10.5,16.8-10.5S-762.5-153.5-760.8-152.5z"/>
		<g id="man-hand">
			<path id="패스_642" class="st41" d="M-750.6-121.1h8.6c0.2,0,0.5,0.1,0.6,0.3l0,0c0.3,0.3,0.3,0.9,0,1.2l-5.2,5.9
				c-0.1,0.2-0.3,0.3-0.6,0.3l-9.1,1c-0.5,0.1-0.9-0.3-1-0.8c0-0.2,0-0.5,0.2-0.7l5.7-6.9C-751.1-120.9-750.8-121.1-750.6-121.1
				L-750.6-121.1z"/>
			<path class="st38" d="M-746.6-114.3c0,0-6.9,0-7.8,0.9c-0.9,0.9-3.9,1.2-2.2-0.6c0.7-0.7,1.4-1.4,2.2-2c0,0-0.9-1.9-5.2,0.9
				c-3.5,2.3-1.7,3.9-5.1,3.9c-1.6,0-24.3,2.2-24.3,2.2s1.3-3.2,3.9-12.7l-11.9-3.9c-0.2,1.1-3.3,14.8-4.1,19.2s2.9,4.6,6.3,5.4
				c3.4,0.9,16-1.6,16.6-1.6s6.5-1.4,9.4-2c2.8-0.4,5.6-1,8.3-1.9c0,0,1.7,0.9,5.2-0.9c2.2-1.1,4.2-2.6,6-4.3c0,0,3.5,0,3.5-0.9
				C-745.8-113.2-746.1-113.8-746.6-114.3z"/>
			<animateTransform
				additive="sum"
				attributeName="transform"
				type="rotate"
				begin="0s"
				dur="4.5s"
				keyTimes="0; 0.2; 0.5; 0.7; 1"
				calcMode="paced"
				values="-8 -790 -110; -5 -790 -110; 0 -790 -110; -5 -790 -110; -8 -790 -110"
				repeatCount="indefinite"
			/>
		</g>
		<path id="패스_644" class="st29" d="M-783.3-129.3c-1.9-4.7-3.3-9.5-4-14.5c0.5-3.1-1.8-2.3-5.8,0c0,0-1.6,0-3.2,7.2
			c-0.9,3.4-1.4,6.9-1.4,10.4c-0.1,1.1,0.4,2.1,1.3,2.7c1.6,1.2,11,3.3,11.1,3.4c0,0.2-0.2,0.6,0.7,0S-782.2-127.5-783.3-129.3z"/>
		<g id="man-head">
			<path id="패스_635" class="st38" d="M-756.1-175.7v13.8l-10.4,2.6l-9.5-11.3l10.4-6L-756.1-175.7z"/>
			<path id="패스_636" class="st42" d="M-773-169.2c0,0,3.5-1.7,3.5-2.6c0-0.9,10.4,0.9,12.1-2.6c0.6,1.7,1,3.5,1.4,5.3
				c0,0.9,3.8-9.6,2.9-11.3c-0.9-1.7,0-4.2-2.5-4.2c-2.4,0.2-4.7,0.8-6.9,1.7c-2.6,0.9-12.1-1.7-14.7,0.9c-2.6,2.6-6,6-3.5,13.8
				c2.6,7.8,2.2,11.7,3.9,11.7s10.4,6,16.4,4.3c6.1-1.7,6-9.5,5.2-10.4c-0.9-0.9-4.3-0.9-6.9,0.9c-1.8,1.3-4.3,1.3-6,0
				C-770-164-771.6-166.5-773-169.2z"/>
			<path id="패스_637_00000088093155348181985080000012045546239172534163_" class="st38" d="M-764.7-142.8
				c1.6-0.6,6.1-2.6,4.9-5.1c-0.2-0.5-0.9-4.6-1-4.5c-0.8,0.2-2.7,0.4-2.7,0.4c-1.7-0.8-3.2-1.8-4.8-2.9c-0.9-0.9-6-1.7-5.2-6
				c0.6-2.4-0.1-5-1.7-6.9l0,0c0,0-0.8-1.7-1.7-0.9s-0.9,2.6,0,5.2c0.5,2.6,1.3,4.6,0.9,7.2v5.5c0,0,0.6,4.7,2,5.9
				C-772.7-143.9-770.1-140.7-764.7-142.8z"/>
			<animateTransform
				additive="sum"
				attributeName="transform"
				type="rotate"
				begin="0s"
				dur="4.5s"
				keyTimes="0; 0.2; 0.5; 0.7; 1"
				calcMode="paced"
				values="5 -770 -100; 3 -770 -100;0 -770 -100; 3 -770 -100; 5 -770 -100"
				repeatCount="indefinite"
			/>
		</g>
	</g>
	<animateTransform
		additive="sum"
		attributeName="transform"
		type="translate"
		begin="0s"
		dur="3.5s"
		keyTimes="0; 0.1;0.5;0.9;1"
		values="0 0; 0 -5; 0 -10; 0 -5; 0 0"
		repeatCount="indefinite"
		calcMode="paced"
	/>
</g>
</svg>
