<?xml version="1.0" encoding="utf-8"?>
<!-- Generator: Adobe Illustrator 26.0.1, SVG Export Plug-In . SVG Version: 6.00 Build 0)  -->
<svg version="1.1" id="Layer_1" xmlns="http://www.w3.org/2000/svg" xmlns:xlink="http://www.w3.org/1999/xlink" x="0px" y="0px"
	 viewBox="0 0 809.6 810.9" style="enable-background:new 0 0 809.6 810.9;" xml:space="preserve">
<style type="text/css">
	.st0{fill:#D2D2D1;}
	.st1{fill:url(#패스_339_00000004544941790860237990000000802510543422162352_);}
	.st2{fill:url(#패스_342_00000125598622156103661740000011447066501484706218_);}
	.st3{fill:#323056;}
	.st4{fill:#DDDDDD;}
	.st5{fill:url(#패스_340_00000026845835318618164220000009837545931387151023_);}
	.st6{opacity:0.2; filter: blur(2px)}
	.st7{fill:#020202;}
	.st8{fill:#BAC4C8;}
	.st9{fill:#7D8993;}
	.st10{fill:#DCDDDD;}
	.st11{fill:#C5C4C4;}
	.st12{fill:none;stroke:#E2E2E2;stroke-width:0.2;}
	.st13{opacity:0.24;clip-path:url(#SVGID_00000107590538029988590120000014937789046015992991_);enable-background:new    ; }
	.st14{opacity:0.24;clip-path:url(#SVGID_00000107590538029988590120000014937789046015992991_);}
	.st15{fill:#7897CE;}
	.st16{fill:#B77EB6;}
	.st17{fill:#FFFFFF;}
	.st18{opacity:0.36;enable-background:new;}
	.st19{fill:#8191C5;}
	.st20{fill:#18406F;}
	.st21{fill:url(#패스_653_00000178194825676036067050000014020390267375649470_);}
	.st22{fill:#6EC0EB;}
	.st23{fill:url(#패스_658_00000054243274652033754160000005044670919966113197_);}
	.st24{fill:#EEEEEE;}
	.st25{enable-background:new    ;}
	.st26{fill:#BFD8E2;}
	.st27{fill:url(#SVGID_00000017492354894147893960000010471321566192866965_);}
	.st28{fill:#84D2E1;}
	.st29{fill:#DDE9DF;}
	.st30{fill:url(#SVGID_00000160909577370789761060000013934557585451484573_);}
	.st31{fill:#E2C481;}
	.st32{fill:#F19C30;}
	.st33{fill:#EFB24C;}
	.st34{fill:#D9E4EF;}
	.st35{fill:#F3F3F3;}
	.st36{fill:#F5CC59;}
	.st37{fill:#97A4A5;}
	.st38{fill:#ED7E29;}
</style>
<g id="laptop" transform="translate(7 -25)">
	<path class="st0" d="M782.7,499.4L249.9,684.9c9.2,17.2,20.9,25.1,36,22.3c15-2.8,21.3-6.8,33.1-10.6
		c78.1-25.2,374.2-132,443.4-155.1c6.5-2.2,12.2-6.5,16.6-9.7C803.9,517.7,782.7,499.4,782.7,499.4z"/>
	<g id="그룹_153">
		
			<linearGradient id="패스_339_00000137132692713366550160000017106182881049385345_" gradientUnits="userSpaceOnUse" x1="-1133.0226" y1="1183.1489" x2="-1132.0226" y2="1182.7479" gradientTransform="matrix(535.927 0 0 -437.6678 607305 518056.5625)">
			<stop  offset="0" style="stop-color:#5B5889"/>
			<stop  offset="1" style="stop-color:#1B1B45"/>
		</linearGradient>
		<path id="패스_339" style="fill:url(#패스_339_00000137132692713366550160000017106182881049385345_);" d="M93.7,249.3
			c0,0-5.7-33.9,18.9-39.6s419-103.4,419-103.4s29.9-11.9,37,18s59.4,253.5,59.4,253.5s5.3,26-8.4,31.7S208.6,538.9,208.6,538.9
			s-33.9,15.4-44.5-27.7S93.7,249.3,93.7,249.3z"/>
		
			<linearGradient id="패스_342_00000035511059969655147100000006684429205441209761_" gradientUnits="userSpaceOnUse" x1="-1132.9556" y1="1183.1165" x2="-1132.0455" y2="1182.7975" gradientTransform="matrix(509.6224 0 0 -410.7648 577499.25 486236.25)">
			<stop  offset="0" style="stop-color:#504E7B"/>
			<stop  offset="1" style="stop-color:#2D2C60"/>
		</linearGradient>
		<path id="패스_342" style="fill:url(#패스_342_00000035511059969655147100000006684429205441209761_);" d="M109.5,258.4
			c0,0-5.5-32.4,18.1-37.8s400.1-98.8,400.1-98.8s28.6-11.3,35.3,17.2S617.6,374,617.6,374s5,24.8-8,30.3
			c-13,5.5-392.5,123.6-392.5,123.6s-32.4,14.7-42.4-26.5S109.5,258.4,109.5,258.4z"/>
		<path id="패스_471" class="st3" d="M108.7,247.8c0.1-0.3,0.9-22.4,15.8-26.2s409-101,409-101s23.4-7.3,29.9,19.1
			s51.9,224.1,51.9,224.1s11.6,39.9-12.5,48.1c-0.2-0.2-0.4-0.5-0.6-0.7c0,0,22.1-4.6,12-47.4C614,363.7,562,139.7,562,139.7
			s-5.5-23.6-28.4-18c-0.1,0.2-409,101.4-409,101.4C116.2,225.3,111.1,231.8,108.7,247.8z"/>
	</g>
	<path class="st4" d="M784.8,496.6L191,534.5c-15.8,5.3-8.4,20.7-8.4,20.7s55,109.6,64.3,126.8s20.9,25.1,36,22.3
		s21.3-6.8,33.1-10.6c78.1-25.2,374.2-132,443.4-155.1c6.5-2.2,17.2-6.2,21.6-9.4C806,514.9,784.8,496.6,784.8,496.6z"/>
	
		<linearGradient id="패스_340_00000150810904843448135570000009858160527980516008_" gradientUnits="userSpaceOnUse" x1="-1132.9292" y1="1182.5135" x2="-1132.3591" y2="1183.4205" gradientTransform="matrix(609.9613 0 0 -291.4939 691325.9375 345376.75)">
		<stop  offset="0" style="stop-color:#D5D5D5"/>
		<stop  offset="1" style="stop-color:#C5C5C4"/>
	</linearGradient>
	<path id="패스_340" style="fill:url(#패스_340_00000150810904843448135570000009858160527980516008_);" d="M183.7,554.8
		c0,0-8.5-15,7.3-20.3s422.5-131.6,422.5-131.6s16.7-7.9,35.2,4.8c18.5,12.8,136,88.9,136,88.9s19.4,16.3-8.4,24.2
		c-27.7,7.9-482.8,168.6-482.8,168.6s-36.4,9.3-45.6-7.9C238.7,664.4,183.7,554.8,183.7,554.8z"/>
	<g id="keyboard-button" transform="translate(1222.278 618.778)">
		<g id="keyboard-shadow" transform="translate(1222.278 618.778)" class="st6">
			<g>
				<path id="패스_344-2_00000145739965242243226570000014331667541198734268_" class="st7" d="M-2146.5-638.4
					c0.1,0,0.4-5.5,3.7-6.7s19.6-7.2,19.6-7.2s5.2-0.8,6.9,2s4.6,6.8,4.6,6.8s2.3,6.2-0.5,7.9s-21,8.5-21,8.5s-6.1,1.3-7.7-0.8
					S-2145.8-634.3-2146.5-638.4z"/>
				<path id="패스_357-2_00000155847046840404619290000010147704686145424285_" class="st7" d="M-2158.6-654.1
					c0.1,0,0.4-5.5,3.7-6.7s19.6-7.2,19.6-7.2s5.2-0.8,6.9,2s4.6,6.8,4.6,6.8s2.3,6.2-0.5,7.9c-2.9,1.6-21,8.5-21,8.5
					s-6.1,1.3-7.7-0.8S-2157.9-650-2158.6-654.1z"/>
				<path id="패스_369-2_00000015314722196181420690000006968867121813670825_" class="st7" d="M-2120.1-667.5
					c0.1,0,0.4-5.1,3.7-6.3s19.6-6.7,19.6-6.7s5.2-0.7,6.9,1.9s4.6,6.3,4.6,6.3s2.3,5.8-0.5,7.3c-2.9,1.5-21,7.9-21,7.9
					s-6.1,1.2-7.7-0.8S-2119.4-663.7-2120.1-667.5z"/>
				<path id="패스_359-2_00000093891355700164229640000012197672989157070756_" class="st7" d="M-2168.2-671.3
					c0.1,0,0.4-5.2,3.7-6.3s19.6-6.7,19.6-6.7s5.2-0.7,6.9,1.9s4.6,6.4,4.6,6.4s2.3,5.8-0.5,7.4s-21,8-21,8s-6.1,1.2-7.7-0.8
					S-2167.5-667.4-2168.2-671.3z"/>
				<path id="패스_367-2_00000029026892023000262040000010381590427635250623_" class="st7" d="M-2130.5-683.7
					c0.1,0,0.4-5,3.7-6.1c3.2-1.1,19.3-6.5,19.3-6.5s5.1-0.7,6.8,1.9c1.7,2.5,4.6,6.2,4.6,6.2s2.3,5.7-0.5,7.2s-20.7,7.7-20.7,7.7
					s-6,1.2-7.6-0.8C-2126.5-676.2-2129.7-680-2130.5-683.7z"/>
				<path id="패스_375-2_00000020367264819077965550000002772410569834719107_" class="st7" d="M-2094.2-695.1
					c0.1,0,0.4-5,3.7-6.1c3.2-1.1,19.3-6.5,19.3-6.5s5.1-0.7,6.8,1.9c1.7,2.5,4.6,6.2,4.6,6.2s2.3,5.7-0.5,7.2s-20.7,7.7-20.7,7.7
					s-6,1.2-7.6-0.8C-2090.3-687.5-2093.5-691.3-2094.2-695.1z"/>
				<path id="패스_381-2_00000073710928804272729200000012557660761689304502_" class="st7" d="M-2057.4-707c0.1,0,0.4-5,3.7-6.1
					s19.3-6.5,19.3-6.5s5.1-0.7,6.8,1.9c1.7,2.5,4.6,6.2,4.6,6.2s2.3,5.7-0.5,7.2c-2.8,1.5-20.7,7.7-20.7,7.7s-6,1.2-7.6-0.8
					C-2053.4-699.5-2056.7-703.3-2057.4-707z"/>
				<path id="패스_389-2_00000115480553449477828950000016813171291292398999_" class="st7" d="M-2021.7-718.8
					c0.1,0,0.4-5,3.7-6.1c3.2-1.1,19.3-6.5,19.3-6.5s5.1-0.7,6.8,1.9c1.7,2.5,4.6,6.2,4.6,6.2s2.3,5.7-0.5,7.2
					c-2.8,1.5-20.7,7.7-20.7,7.7s-6,1.2-7.6-0.8S-2021-715-2021.7-718.8z"/>
				<path id="패스_395-2_00000076590093574758878410000005051971643910251666_" class="st7" d="M-1986.4-729.3
					c0.1,0,0.4-5,3.7-6.1c3.2-1.1,19.3-6.5,19.3-6.5s5.1-0.7,6.8,1.9c1.7,2.5,4.6,6.2,4.6,6.2s2.3,5.7-0.5,7.2
					c-2.8,1.5-20.7,7.7-20.7,7.7s-6,1.2-7.6-0.8S-1985.7-725.6-1986.4-729.3z"/>
				<path id="패스_402-2_00000152250482465076153730000002101850373053410193_" class="st7" d="M-1949.8-741.5
					c0.1,0,0.4-4.5,3.6-5.5s19.1-5.9,19.1-5.9s5-0.6,6.8,1.7c1.7,2.3,4.5,5.6,4.5,5.6s2.3,5.1-0.5,6.4c-2.8,1.3-20.4,7-20.4,7
					s-6,1.1-7.5-0.7S-1949.1-738.1-1949.8-741.5z"/>
				<path id="패스_410-2_00000142872900272135631060000012984525284262060932_" class="st7" d="M-1916.1-752.6
					c0.1,0,0.4-4.4,3.5-5.3s18.5-5.7,18.5-5.7s4.9-0.6,6.6,1.6c1.7,2.2,4.4,5.4,4.4,5.4s2.2,4.9-0.5,6.2s-19.8,6.7-19.8,6.7
					s-5.8,1.1-7.3-0.7C-1912.3-746-1915.4-749.3-1916.1-752.6z"/>
				<path id="패스_361-2_00000025400971807484284950000015044903185675375769_" class="st7" d="M-2179.2-687.8
					c0.1,0,0.4-4.8,3.6-5.9c3.2-1.1,19-6.3,19-6.3s5-0.7,6.7,1.8s4.5,6,4.5,6s2.2,5.5-0.5,6.9c-2.8,1.4-20.3,7.5-20.3,7.5
					s-5.9,1.2-7.5-0.7S-2178.4-684.2-2179.2-687.8z"/>
				<path id="패스_366-2_00000021842444984496732940000009059389942950709928_" class="st7" d="M-2141.1-699.6
					c0.1,0,0.4-4.8,3.4-5.9c3-1.1,17.9-6.3,17.9-6.3s4.7-0.7,6.3,1.8s4.2,6,4.2,6s2.1,5.5-0.5,6.9c-2.6,1.4-19.1,7.5-19.1,7.5
					s-5.6,1.2-7.1-0.7C-2137.4-692.3-2140.5-696-2141.1-699.6z"/>
				<path id="패스_373-2_00000111193327742832873490000008854486351664885402_" class="st7" d="M-2104.9-711
					c0.1,0,0.4-4.8,3.4-5.9c3-1.1,17.9-6.3,17.9-6.3s4.7-0.7,6.3,1.8s4.2,6,4.2,6s2.1,5.5-0.5,6.9c-2.6,1.4-19.1,7.5-19.1,7.5
					s-5.6,1.2-7.1-0.7C-2101.2-703.7-2104.2-707.4-2104.9-711z"/>
				<path id="패스_379-2_00000039091454483988265770000002485322507780240769_" class="st7" d="M-2068-722.3
					c0.1,0,0.4-4.8,3.4-5.9c3-1.1,17.9-6.3,17.9-6.3s4.7-0.7,6.3,1.8c1.6,2.5,4.2,6,4.2,6s2.1,5.5-0.5,6.9s-19.1,7.5-19.1,7.5
					s-5.6,1.2-7.1-0.7S-2067.3-718.7-2068-722.3z"/>
				<path id="패스_386-2_00000168816550645427328030000011007698067181944722_" class="st7" d="M-2033.6-733.6
					c0.1,0,0.4-4.8,3.4-5.9s17.9-6.3,17.9-6.3s4.7-0.7,6.3,1.8c1.6,2.5,4.2,6,4.2,6s2.1,5.5-0.5,6.9s-19.1,7.5-19.1,7.5
					s-5.6,1.2-7.1-0.7C-2029.9-726.3-2032.9-730-2033.6-733.6z"/>
				<path id="패스_397-2_00000137811911612563676590000018084136701336797584_" class="st7" d="M-1998.5-744.9
					c0.1,0,0.4-4.8,3.4-5.9s17.9-6.3,17.9-6.3s4.7-0.7,6.3,1.8c1.6,2.5,4.2,6,4.2,6s2.1,5.5-0.5,6.9s-19.1,7.5-19.1,7.5
					s-5.6,1.2-7.1-0.7C-1994.8-737.6-1997.9-741.3-1998.5-744.9z"/>
				<path id="패스_404-2_00000076589572410656247160000006958745195779799203_" class="st7" d="M-1963.5-756.4
					c0.1,0,0.4-4.6,3.4-5.6s17.9-5.9,17.9-5.9s4.7-0.6,6.3,1.7c1.6,2.3,4.2,5.7,4.2,5.7s2.1,5.2-0.5,6.5s-19.1,7-19.1,7
					s-5.6,1.1-7.1-0.7C-1959.8-749.6-1962.8-753-1963.5-756.4z"/>
				<path id="패스_415-2_00000113338797893725365730000002322948424042790330_" class="st7" d="M-1930.8-767.2
					c0.1,0,0.4-4.6,3.4-5.6s17.9-5.9,17.9-5.9s4.7-0.6,6.3,1.7c1.6,2.3,4.2,5.7,4.2,5.7s2.1,5.2-0.5,6.5c-2.6,1.4-19.1,7-19.1,7
					s-5.6,1.1-7.1-0.7S-1930.2-763.8-1930.8-767.2z"/>
				<path id="패스_371-2_00000170966139499446301290000017124384945469934730_" class="st7" d="M-2151.9-714.6
					c0.1,0,0.4-4.5,3.3-5.5c2.9-1,17.6-5.9,17.6-5.9s4.7-0.6,6.2,1.7s4.2,5.6,4.2,5.6s2.1,5.1-0.5,6.5s-18.9,7-18.9,7
					s-5.5,1.1-7-0.7S-2151.2-711.3-2151.9-714.6z"/>
				<path id="패스_376-2_00000138552311863610668820000011680308285708642490_" class="st7" d="M-2115.6-726
					c0.1,0,0.4-4.5,3.3-5.5c2.9-1,17.6-5.9,17.6-5.9s4.7-0.6,6.2,1.7s4.2,5.6,4.2,5.6s2.1,5.1-0.5,6.5s-18.9,7-18.9,7
					s-5.5,1.1-7-0.7S-2115-722.6-2115.6-726z"/>
				<path id="패스_382-2_00000025425185416105956770000007976176958775353759_" class="st7" d="M-2080-737.4
					c0.1,0,0.4-4.5,3.3-5.5c2.9-1,17.6-5.9,17.6-5.9s4.7-0.6,6.2,1.7s4.2,5.6,4.2,5.6s2.1,5.1-0.5,6.5s-18.9,7-18.9,7
					s-5.5,1.1-7-0.7C-2076.4-730.6-2079.3-734-2080-737.4z"/>
				<path id="패스_392-2_00000098926625063185575180000003657853214779142029_" class="st7" d="M-2045.9-748.1
					c0.1,0,0.4-4.5,3.3-5.5s17.3-5.9,17.3-5.9s4.6-0.6,6.1,1.7s4.1,5.6,4.1,5.6s2,5.1-0.5,6.5c-2.5,1.3-18.5,7-18.5,7
					s-5.4,1.1-6.8-0.7S-2045.3-744.8-2045.9-748.1z"/>
				<path id="패스_400-2_00000106130008609209101020000015480198120050532770_" class="st7" d="M-2012.1-758.9
					c0.1,0,0.4-4.5,3.3-5.5s17.3-5.9,17.3-5.9s4.6-0.6,6.1,1.7s4.1,5.6,4.1,5.6s2,5.1-0.5,6.5c-2.5,1.3-18.5,7-18.5,7
					s-5.4,1.1-6.8-0.7S-2011.5-755.5-2012.1-758.9z"/>
				<path id="패스_406-2_00000173161114556447875650000009788714962354405001_" class="st7" d="M-1978-769.7
					c0.1,0,0.4-4.3,3.3-5.3s17.3-5.6,17.3-5.6s4.6-0.6,6.1,1.6s4.1,5.4,4.1,5.4s2,4.9-0.5,6.2c-2.5,1.3-18.5,6.7-18.5,6.7
					s-5.4,1-6.8-0.7S-1977.4-766.5-1978-769.7z"/>
				<path id="패스_416-2_00000052806326865343172500000005629068662399666844_" class="st7" d="M-1945.4-780.1
					c0.1,0,0.4-4.2,3.3-5.1s17.3-5.4,17.3-5.4s4.6-0.6,6.1,1.5s4.1,5.1,4.1,5.1s2,4.7-0.5,5.9c-2.5,1.2-18.5,6.4-18.5,6.4
					s-5.4,1-6.8-0.6S-1944.8-777-1945.4-780.1z"/>
				<path id="패스_362-2_00000093169606106861536670000005822785968360717752_" class="st7" d="M-2188.8-702.5
					c0.1,0,0.4-4.8,3.6-5.8s19-6.2,19-6.2s5-0.7,6.7,1.8c1.7,2.4,4.5,5.9,4.5,5.9s2.2,5.4-0.5,6.8c-2.8,1.4-20.3,7.4-20.3,7.4
					s-5.9,1.2-7.5-0.7C-2184.9-695.3-2188.1-698.9-2188.8-702.5z"/>
				<path id="패스_346-2_00000074418144846444798770000012177988464702549130_" class="st7" d="M-2106.6-651.2
					c0.1,0,0.4-5.5,3.7-6.7s19.6-7.2,19.6-7.2s5.2-0.8,6.9,2s4.6,6.8,4.6,6.8s2.3,6.2-0.5,7.9c-2.9,1.6-21,8.5-21,8.5
					s-6.1,1.3-7.7-0.8S-2105.9-647.1-2106.6-651.2z"/>
				<path id="패스_348-2_00000114071335753610073660000011701011491566617759_" class="st7" d="M-2068-664.1
					c0.1,0,0.4-5.5,3.7-6.7s19.6-7.2,19.6-7.2s5.2-0.8,6.9,2s4.6,6.8,4.6,6.8s2.3,6.2-0.5,7.9c-2.9,1.6-21,8.5-21,8.5
					s-6.1,1.3-7.7-0.8S-2067.3-660-2068-664.1z"/>
				<path id="패스_351-2_00000083073262070653278540000016465797614014360501_" class="st7" d="M-2030.5-676.9
					c0.1,0,0.4-5.5,3.7-6.7s128.5-41.9,128.5-41.9s5.2-0.8,6.9,2l6,5.7c0,0,2.2,5.1-0.7,6.8c-2.9,1.6-131.1,45.4-131.1,45.4
					s-6.1,1.3-7.7-0.8S-2029.8-672.8-2030.5-676.9z"/>
				<path id="패스_350-2_00000089571361786469304050000012022034542255462023_" class="st7" d="M-2080.8-679
					c0.1,0,0.4-5.5,3.7-6.7c3.2-1.2,19.3-7.2,19.3-7.2s5.1-0.8,6.8,2s4.6,6.8,4.6,6.8s2.3,6.2-0.5,7.9s-20.7,8.5-20.7,8.5
					s-6,1.3-7.6-0.8S-2080-674.9-2080.8-679z"/>
				<path id="패스_384-2_00000089542857861514445110000013469471008157054368_" class="st7" d="M-2043.9-691.2
					c0.1,0,0.4-5.5,3.7-6.7c3.2-1.2,19.3-7.2,19.3-7.2s5.1-0.8,6.8,2s4.6,6.8,4.6,6.8s2.3,6.2-0.5,7.9c-2.8,1.6-20.7,8.5-20.7,8.5
					s-6,1.3-7.6-0.8C-2039.9-682.9-2043.2-687.1-2043.9-691.2z"/>
				<path id="패스_391-2_00000124131315253665779600000004698691459650782107_" class="st7" d="M-2007.1-703.8
					c0.1,0,0.4-5.5,3.7-6.7c3.2-1.2,19.3-7.2,19.3-7.2s5.1-0.8,6.8,2s4.6,6.8,4.6,6.8s2.3,6.2-0.5,7.9c-2.8,1.6-20.7,8.5-20.7,8.5
					s-6,1.3-7.6-0.8C-2003.1-695.5-2006.3-699.7-2007.1-703.8z"/>
				<path id="패스_399-2_00000169551518104738089410000008178976592569416094_" class="st7" d="M-1970.9-714.9
					c0.1,0,0.4-5.5,3.7-6.7c3.2-1.2,19.3-7.2,19.3-7.2s5.1-0.8,6.8,2s4.6,6.8,4.6,6.8s2.3,6.2-0.5,7.9c-2.8,1.6-20.7,8.5-20.7,8.5
					s-6,1.3-7.6-0.8C-1967-706.7-1970.2-710.8-1970.9-714.9z"/>
				<path id="패스_409-2_00000020360479119095677850000018304283985580065190_" class="st7" d="M-1935.7-728
					c0.1,0,0.5-4.6,3.8-5.7c3.3-1,19.9-6,19.9-6s5.2-0.6,7,1.7s4.7,5.7,4.7,5.7s2.3,5.2-0.5,6.6s-21.2,7.1-21.2,7.1
					s-6.2,1.1-7.8-0.7C-1931.6-721.1-1934.9-724.6-1935.7-728z"/>
				<path id="패스_413-2_00000104688155463981550600000002972926772253464717_" class="st7" d="M-1898.9-739.3
					c0.1,0,0.4-4.6,3.5-5.7c3-1,18.2-6,18.2-6s4.8-0.6,6.5,1.7s4.3,5.7,4.3,5.7s2.2,5.2-0.5,6.6c-2.7,1.4-19.5,7.1-19.5,7.1
					s-5.7,1.1-7.2-0.7C-1895.1-732.3-1898.2-735.8-1898.9-739.3z"/>
				<path id="패스_420-2_00000181765695004635311830000001527033580961311406_" class="st7" d="M-1864.7-751.3
					c0.1,0,0.4-4.6,3.5-5.7s18.7-6,18.7-6s4.9-0.6,6.6,1.7c1.7,2.3,4.4,5.7,4.4,5.7s2.2,5.2-0.5,6.6s-20,7.1-20,7.1
					s-5.8,1.1-7.4-0.7C-1860.9-744.4-1864-747.9-1864.7-751.3z"/>
				<path id="패스_418-2_00000140702582257319841910000009515703850835092873_" class="st7" d="M-1884.6-725.9
					c0.1,0,0.4-4.6,3.6-5.7s18.9-6,18.9-6s5-0.6,6.7,1.7c1.7,2.3,4.5,5.7,4.5,5.7s3.4,6.3,0.6,7.7c-2.8,1.4-20.2,7.1-20.2,7.1
					s-6.5,0.2-8.1-1.6S-1883.8-722.5-1884.6-725.9z"/>
				<path id="패스_423-2_00000126294720785466830790000001078360452097076624_" class="st7" d="M-1849.5-738
					c0.1,0,0.4-4.6,3.6-5.7s18.9-6,18.9-6s5-0.6,6.7,1.7c1.7,2.3,4.5,5.7,4.5,5.7s3.4,6.3,0.6,7.7c-2.8,1.4-20.2,7.1-20.2,7.1
					s-6.5,0.2-8.1-1.6S-1848.8-734.5-1849.5-738z"/>
				<path id="패스_439-2_00000029017960051585059780000005991913451414921088_" class="st7" d="M-1810.9-744.7
					c0,0-3.3-3.7-1.8-6.6l0.5-1.7c0,0,31.1-2.5,34.9,0l0.6,3.3c0.4,1.4-0.1,3-1.4,3.7c-2.2,1.4-18.8,7.1-18.8,7.1s-5.4,1.2-9.3-1.5
					C-1810-743-1810.9-744.7-1810.9-744.7z"/>
				<path id="패스_440-2_00000047765758903882815770000002873708852431131322_" class="st7" d="M-1830.1-757.1
					c0,0-3.3-3.7-1.8-6.6l0.5-1.7c0,0,31.1-2.5,34.9,0l0.6,3.3c0.4,1.4-0.1,3-1.4,3.7c-2.2,1.4-18.8,7.1-18.8,7.1s-5.4,1.2-9.3-1.5
					C-1829.1-755.4-1830.1-757.1-1830.1-757.1z"/>
				<g transform="matrix(1, 0, 0, 1, -250.78, -420.86)">
					<path id="패스_443-2_00000004513427373105631880000003734209866781442190_" class="st7" d="M-1611.2-364c0,0-3-3-1.6-5.3
						l0.5-1.4c0,0,28.5-2,31.9,0l0.6,2.6c0.4,1.2-0.1,2.5-1.3,3c-2,1.1-17.2,5.7-17.2,5.7s-5,1-8.5-1.2S-1611.2-364-1611.2-364z"/>
				</g>
				<path id="패스_450-2_00000092431547242037298610000001567808219422627484_" class="st7" d="M-1879.7-760.8c0,0-3-3-1.6-5.3
					l0.5-1.4c0,0,62.2-15.4,65.6-13.3l1.7,3.7c0.4,1.2-0.1,2.5-1.3,3c-2,1.1-52.1,18-52.1,18s-5,1-8.5-1.2
					S-1879.7-760.8-1879.7-760.8z"/>
				<path id="패스_446-2_00000049184844432960141360000009635820098733117834_" class="st7" d="M-1895.7-775.2c0,0-3-3-1.6-5.3
					l0.5-1.4c0,0,28.5-2,31.9,0l0.6,2.6c0.4,1.2-0.1,2.5-1.3,3c-2,1.1-17.2,5.7-17.2,5.7s-5,1-8.5-1.2S-1895.7-775.2-1895.7-775.2z"
					/>
				<path id="패스_449-2_00000103977931376318093000000001046566385502148505_" class="st7" d="M-1911.8-787.7
					c0,0-2.5-2.6-1.1-4.9l0.5-1.4c0,0,28-2.4,31.4-0.4l0.6,2.6c0.4,1.2-0.1,2.5-1.3,3c-2,1.1-17.2,5.7-17.2,5.7s-5,1-8.5-1.2
					S-1911.8-787.7-1911.8-787.7z"/>
				<path id="패스_445-2_00000036947368909020538610000012272533456187876772_" class="st7" d="M-1878.3-797.4c0,0-3-3-1.6-5.3
					l0.5-1.4c0,0,28.5-2,31.9,0l0.6,2.6c0.4,1.2-0.1,2.5-1.3,3c-2,1.1-17.2,5.7-17.2,5.7s-5,1-8.5-1.2S-1878.3-797.4-1878.3-797.4z"
					/>
			</g>
		</g>
		<path id="패스_344-2" class="st8" d="M-923.2-21.6c0.1,0,0.4-5.5,3.7-6.7s19.6-7.2,19.6-7.2s5.2-0.8,6.9,2s4.6,6.8,4.6,6.8
			s2.3,6.2-0.5,7.9s-21,8.5-21,8.5s-6.1,1.3-7.7-0.8S-922.5-17.5-923.2-21.6z"/>
		<path id="패스_357-2" class="st8" d="M-935.3-37.3c0.1,0,0.4-5.5,3.7-6.7s19.6-7.2,19.6-7.2s5.2-0.8,6.9,2s4.6,6.8,4.6,6.8
			s2.3,6.2-0.5,7.9s-21,8.5-21,8.5s-6.1,1.3-7.7-0.8S-934.6-33.2-935.3-37.3z"/>
		<path id="패스_369-2" class="st8" d="M-896.8-50.7c0.1,0,0.4-5.1,3.7-6.3s19.6-6.7,19.6-6.7s5.2-0.7,6.9,1.9
			c1.8,2.6,4.6,6.3,4.6,6.3s2.3,5.8-0.5,7.3s-21,7.9-21,7.9s-6.1,1.2-7.7-0.8S-896.1-46.9-896.8-50.7z"/>
		<path id="패스_359-2" class="st8" d="M-945-54.5c0.1,0,0.4-5.2,3.7-6.3s19.6-6.7,19.6-6.7s5.2-0.7,6.9,1.9
			c1.8,2.6,4.6,6.4,4.6,6.4s2.3,5.8-0.5,7.4s-21,8-21,8s-6.1,1.2-7.7-0.8S-944.2-50.6-945-54.5z"/>
		<path id="패스_367-2" class="st8" d="M-907.2-66.9c0.1,0,0.4-5,3.7-6.1s19.3-6.5,19.3-6.5s5.1-0.7,6.8,1.9s4.6,6.2,4.6,6.2
			s2.3,5.7-0.5,7.2c-2.8,1.5-20.7,7.7-20.7,7.7s-6,1.2-7.6-0.8S-906.5-63.2-907.2-66.9z"/>
		<path id="패스_375-2" class="st8" d="M-870.9-78.3c0.1,0,0.4-5,3.7-6.1s19.3-6.5,19.3-6.5s5.1-0.7,6.8,1.9s4.6,6.2,4.6,6.2
			s2.3,5.7-0.5,7.2s-20.7,7.7-20.7,7.7s-6,1.2-7.6-0.8S-870.2-74.6-870.9-78.3z"/>
		<path id="패스_381-2" class="st8" d="M-834.1-90.3c0.1,0,0.4-5,3.7-6.1s19.3-6.5,19.3-6.5s5.1-0.7,6.8,1.9s4.6,6.2,4.6,6.2
			s2.3,5.7-0.5,7.2s-20.7,7.7-20.7,7.7s-6,1.2-7.6-0.8S-833.4-86.5-834.1-90.3z"/>
		<g transform="matrix(1, 0, 0, 1, -250.78, -420.86)">
			<path id="패스_389-2" class="st8" d="M-547.7,318.9c0.1,0,0.4-5,3.7-6.1s19.3-6.5,19.3-6.5s5.1-0.7,6.8,1.9s4.6,6.2,4.6,6.2
				s2.3,5.7-0.5,7.2s-20.7,7.7-20.7,7.7s-6,1.2-7.6-0.8S-546.9,322.6-547.7,318.9z"/>
		</g>
		<path id="패스_395-2" class="st8" d="M-763.2-112.5c0.1,0,0.4-5,3.7-6.1s19.3-6.5,19.3-6.5s5.1-0.7,6.8,1.9s4.6,6.2,4.6,6.2
			s2.3,5.7-0.5,7.2s-20.7,7.7-20.7,7.7s-6,1.2-7.6-0.8S-762.4-108.8-763.2-112.5z"/>
		<path id="패스_402-2" class="st8" d="M-726.5-124.7c0.1,0,0.4-4.5,3.6-5.5s19.1-5.9,19.1-5.9s5-0.6,6.8,1.7s4.5,5.6,4.5,5.6
			s2.3,5.1-0.5,6.4s-20.4,7-20.4,7s-6,1.1-7.5-0.7S-725.8-121.3-726.5-124.7z"/>
		<path id="패스_410-2" class="st8" d="M-692.8-135.8c0.1,0,0.4-4.4,3.5-5.3s18.5-5.7,18.5-5.7s4.9-0.6,6.6,1.6s4.4,5.4,4.4,5.4
			s2.2,4.9-0.5,6.2s-19.8,6.7-19.8,6.7s-5.8,1.1-7.3-0.7C-689-129.2-692.1-132.5-692.8-135.8z"/>
		<path id="패스_361-2" class="st8" d="M-955.9-71c0.1,0,0.4-4.8,3.6-5.9s19-6.3,19-6.3s5-0.7,6.7,1.8s4.5,6,4.5,6
			s2.2,5.5-0.5,6.9s-20.3,7.5-20.3,7.5s-5.9,1.2-7.5-0.7S-955.2-67.4-955.9-71z"/>
		<path id="패스_366-2" class="st8" d="M-917.8-82.8c0.1,0,0.4-4.8,3.4-5.9s17.9-6.3,17.9-6.3s4.7-0.7,6.3,1.8s4.2,6,4.2,6
			s2.1,5.5-0.5,6.9s-19.1,7.5-19.1,7.5s-5.6,1.2-7.1-0.7S-917.2-79.2-917.8-82.8z"/>
		<path id="패스_373-2" class="st8" d="M-881.6-94.2c0.1,0,0.4-4.8,3.4-5.9s17.9-6.3,17.9-6.3s4.7-0.7,6.3,1.8s4.2,6,4.2,6
			s2.1,5.5-0.5,6.9s-19.1,7.5-19.1,7.5s-5.6,1.2-7.1-0.7S-880.9-90.6-881.6-94.2z"/>
		<path id="패스_379-2" class="st8" d="M-844.7-105.5c0.1,0,0.4-4.8,3.4-5.9s17.9-6.3,17.9-6.3s4.7-0.7,6.3,1.8s4.2,6,4.2,6
			s2.1,5.5-0.5,6.9s-19.1,7.5-19.1,7.5s-5.6,1.2-7.1-0.7S-844-101.9-844.7-105.5z"/>
		<path id="패스_386-2" class="st8" d="M-810.3-116.8c0.1,0,0.4-4.8,3.4-5.9S-789-129-789-129s4.7-0.7,6.3,1.8
			c1.6,2.5,4.2,6,4.2,6s2.1,5.5-0.5,6.9s-19.1,7.5-19.1,7.5s-5.6,1.2-7.1-0.7S-809.6-113.2-810.3-116.8z"/>
		<path id="패스_397-2" class="st8" d="M-775.2-128.1c0.1,0,0.4-4.8,3.4-5.9s17.9-6.3,17.9-6.3s4.7-0.7,6.3,1.8s4.2,6,4.2,6
			s2.1,5.5-0.5,6.9s-19.1,7.5-19.1,7.5s-5.6,1.2-7.1-0.7S-774.6-124.5-775.2-128.1z"/>
		<path id="패스_404-2" class="st8" d="M-740.2-139.7c0.1,0,0.4-4.6,3.4-5.6s17.9-5.9,17.9-5.9s4.7-0.6,6.3,1.7s4.2,5.7,4.2,5.7
			s2.1,5.2-0.5,6.5s-19.1,7-19.1,7s-5.6,1.1-7.1-0.7S-739.5-136.3-740.2-139.7z"/>
		<path id="패스_415-2" class="st8" d="M-707.6-150.4c0.1,0,0.4-4.6,3.4-5.6s17.9-5.9,17.9-5.9s4.7-0.6,6.3,1.7s4.2,5.7,4.2,5.7
			s2.1,5.2-0.5,6.5s-19.1,7-19.1,7s-5.6,1.1-7.1-0.7S-706.9-147-707.6-150.4z"/>
		<path id="패스_371-2" class="st8" d="M-928.6-97.9c0.1,0,0.4-4.5,3.3-5.5s17.6-5.9,17.6-5.9s4.7-0.6,6.2,1.7s4.2,5.6,4.2,5.6
			s2.1,5.1-0.5,6.5s-18.9,7-18.9,7s-5.5,1.1-7-0.7S-927.9-94.5-928.6-97.9z"/>
		<g transform="matrix(1, 0, 0, 1, -250.78, -420.86)">
			<path id="패스_376-2" class="st8" d="M-641.6,311.6c0.1,0,0.4-4.5,3.3-5.5s17.6-5.9,17.6-5.9s4.7-0.6,6.2,1.7s4.2,5.6,4.2,5.6
				s2.1,5.1-0.5,6.5s-18.9,7-18.9,7s-5.5,1.1-7-0.7S-640.9,315-641.6,311.6z"/>
		</g>
		<path id="패스_382-2" class="st8" d="M-856.7-120.6c0.1,0,0.4-4.5,3.3-5.5s17.6-5.9,17.6-5.9s4.7-0.6,6.2,1.7s4.2,5.6,4.2,5.6
			s2.1,5.1-0.5,6.5s-18.9,7-18.9,7s-5.5,1.1-7-0.7S-856.1-117.2-856.7-120.6z"/>
		<path id="패스_392-2" class="st8" d="M-822.7-131.4c0.1,0,0.4-4.5,3.3-5.5s17.3-5.9,17.3-5.9s4.6-0.6,6.1,1.7s4.1,5.6,4.1,5.6
			s2,5.1-0.5,6.5c-2.5,1.3-18.5,7-18.5,7s-5.4,1.1-6.8-0.7S-822-128-822.7-131.4z"/>
		<path id="패스_400-2" class="st8" d="M-788.8-142.1c0.1,0,0.4-4.5,3.3-5.5s17.3-5.9,17.3-5.9s4.6-0.6,6.1,1.7s4.1,5.6,4.1,5.6
			s2,5.1-0.5,6.5s-18.5,7-18.5,7s-5.4,1.1-6.8-0.7S-788.2-138.7-788.8-142.1z"/>
		<path id="패스_406-2" class="st8" d="M-754.8-152.9c0.1,0,0.4-4.3,3.3-5.3s17.3-5.6,17.3-5.6s4.6-0.6,6.1,1.6s4.1,5.4,4.1,5.4
			s2,4.9-0.5,6.2S-743-144-743-144s-5.4,1-6.8-0.7S-754.1-149.7-754.8-152.9z"/>
		<path id="패스_416-2" class="st8" d="M-722.1-163.3c0.1,0,0.4-4.2,3.3-5.1s17.3-5.4,17.3-5.4s4.6-0.6,6.1,1.5s4.1,5.1,4.1,5.1
			s2,4.7-0.5,5.9s-18.5,6.4-18.5,6.4s-5.4,1-6.8-0.6S-721.5-160.2-722.1-163.3z"/>
		<path id="패스_362-2" class="st8" d="M-965.5-85.7c0.1,0,0.4-4.8,3.6-5.8s19-6.2,19-6.2s5-0.7,6.7,1.8s4.5,5.9,4.5,5.9
			s2.2,5.4-0.5,6.8s-20.3,7.4-20.3,7.4s-5.9,1.2-7.5-0.7S-964.8-82.1-965.5-85.7z"/>
		<path id="패스_346-2" class="st8" d="M-883.4-34.5c0.1,0,0.4-5.5,3.7-6.7s19.6-7.2,19.6-7.2s5.2-0.8,6.9,2s4.6,6.8,4.6,6.8
			s2.3,6.2-0.5,7.9s-21,8.5-21,8.5s-6.1,1.3-7.7-0.8S-882.6-30.4-883.4-34.5z"/>
		<path id="패스_348-2" class="st8" d="M-844.7-47.3c0.1,0,0.4-5.5,3.7-6.7s19.6-7.2,19.6-7.2s5.2-0.8,6.9,2s4.6,6.8,4.6,6.8
			s2.3,6.2-0.5,7.9s-21,8.5-21,8.5s-6.1,1.3-7.7-0.8S-844-43.2-844.7-47.3z"/>
		<path id="패스_351-2" class="st8" d="M-807.3-60.1c0.1,0,0.4-5.5,3.7-6.7S-675-108.7-675-108.7s5.2-0.8,6.9,2l6,5.7
			c0,0,2.2,5.1-0.7,6.8s-131.1,45.4-131.1,45.4s-6.1,1.3-7.7-0.8S-806.5-56-807.3-60.1z"/>
		<path id="패스_350-2" class="st8" d="M-857.5-62.3c0.1,0,0.4-5.5,3.7-6.7s19.3-7.2,19.3-7.2s5.1-0.8,6.8,2s4.6,6.8,4.6,6.8
			s2.3,6.2-0.5,7.9s-20.7,8.5-20.7,8.5s-6,1.3-7.6-0.8S-856.8-58.2-857.5-62.3z"/>
		<path id="패스_384-2" class="st8" d="M-820.6-74.4c0.1,0,0.4-5.5,3.7-6.7s19.3-7.2,19.3-7.2s5.1-0.8,6.8,2s4.6,6.8,4.6,6.8
			s2.3,6.2-0.5,7.9s-20.7,8.5-20.7,8.5s-6,1.3-7.6-0.8C-816.7-66.2-819.9-70.3-820.6-74.4z"/>
		<path id="패스_391-2" class="st8" d="M-783.8-87c0.1,0,0.4-5.5,3.7-6.7s19.3-7.2,19.3-7.2s5.1-0.8,6.8,2s4.6,6.8,4.6,6.8
			s2.3,6.2-0.5,7.9s-20.7,8.5-20.7,8.5s-6,1.3-7.6-0.8S-783.1-82.9-783.8-87z"/>
		<path id="패스_399-2" class="st8" d="M-747.7-98.2c0.1,0,0.4-5.5,3.7-6.7s19.3-7.2,19.3-7.2s5.1-0.8,6.8,2s4.6,6.8,4.6,6.8
			s2.3,6.2-0.5,7.9s-20.7,8.5-20.7,8.5s-6,1.3-7.6-0.8S-746.9-94.1-747.7-98.2z"/>
		<path id="패스_409-2" class="st8" d="M-712.4-111.3c0.1,0,0.5-4.6,3.8-5.7s19.9-6,19.9-6s5.2-0.6,7,1.7s4.7,5.7,4.7,5.7
			s2.3,5.2-0.5,6.6s-21.2,7.1-21.2,7.1s-6.2,1.1-7.8-0.7S-711.6-107.8-712.4-111.3z"/>
		<path id="패스_413-2" class="st8" d="M-675.6-122.5c0.1,0,0.4-4.6,3.5-5.7c3-1,18.2-6,18.2-6s4.8-0.6,6.5,1.7s4.3,5.7,4.3,5.7
			s2.2,5.2-0.5,6.6s-19.5,7.1-19.5,7.1s-5.7,1.1-7.2-0.7S-674.9-119-675.6-122.5z"/>
		<path id="패스_420-2" class="st8" d="M-641.5-134.6c0.1,0,0.4-4.6,3.5-5.7s18.7-6,18.7-6s4.9-0.6,6.6,1.7s4.4,5.7,4.4,5.7
			s2.2,5.2-0.5,6.6s-20,7.1-20,7.1s-5.8,1.1-7.4-0.7S-640.8-131.1-641.5-134.6z"/>
		<path id="패스_418-2" class="st8" d="M-661.3-109.1c0.1,0,0.4-4.6,3.6-5.7s18.9-6,18.9-6s5-0.6,6.7,1.7s4.5,5.7,4.5,5.7
			s3.4,6.3,0.6,7.7s-20.2,7.1-20.2,7.1s-6.5,0.2-8.1-1.6S-660.6-105.7-661.3-109.1z"/>
		<path id="패스_423-2" class="st8" d="M-626.2-121.2c0.1,0,0.4-4.6,3.6-5.7s18.9-6,18.9-6s5-0.6,6.7,1.7s4.5,5.7,4.5,5.7
			s3.4,6.3,0.6,7.7s-20.2,7.1-20.2,7.1s-6.5,0.2-8.1-1.6S-625.5-117.8-626.2-121.2z"/>
		<path id="패스_439-2" class="st8" d="M-587.6-127.9c0,0-3.3-3.7-1.8-6.6l0.5-1.7c0,0,31.1-2.5,34.9,0l0.6,3.3
			c0.4,1.4-0.1,3-1.4,3.7c-2.2,1.4-18.8,7.1-18.8,7.1s-5.5,1.2-9.3-1.5S-587.6-127.9-587.6-127.9z"/>
		<path id="패스_440-2" class="st8" d="M-606.8-140.3c0,0-3.3-3.7-1.8-6.6l0.5-1.7c0,0,31.1-2.5,34.9,0l0.6,3.3
			c0.4,1.4-0.1,3-1.4,3.7c-2.2,1.4-18.8,7.1-18.8,7.1s-5.5,1.2-9.3-1.5S-606.8-140.3-606.8-140.3z"/>
		<path id="패스_443-2" class="st8" d="M-638.7-168.1c0,0-3-3-1.6-5.3l0.5-1.4c0,0,28.5-2,31.9,0l0.6,2.6c0.4,1.2-0.1,2.5-1.3,3
			c-2,1.1-17.2,5.7-17.2,5.7s-5,1-8.5-1.2S-638.7-168.1-638.7-168.1z"/>
		<path id="패스_450-2" class="st8" d="M-656.4-144c0,0-3-3-1.6-5.3l0.5-1.4c0,0,62.2-15.4,65.6-13.3l1.7,3.7
			c0.4,1.2-0.1,2.5-1.3,3c-2,1.1-52.1,18-52.1,18s-5,1-8.5-1.2S-656.4-144-656.4-144z"/>
		<path id="패스_446-2" class="st8" d="M-672.4-158.4c0,0-3-3-1.6-5.3l0.5-1.4c0,0,28.5-2,31.9,0l0.6,2.6c0.4,1.2-0.1,2.5-1.3,3
			c-2,1.1-17.2,5.7-17.2,5.7s-5,1-8.5-1.2S-672.4-158.4-672.4-158.4z"/>
		<path id="패스_449-2" class="st8" d="M-688.5-170.9c0,0-2.5-2.6-1.1-4.9l0.5-1.4c0,0,28-2.4,31.4-0.4l0.6,2.6
			c0.4,1.2-0.1,2.5-1.3,3c-2,1.1-17.2,5.7-17.2,5.7s-5,1-8.5-1.2S-688.5-170.9-688.5-170.9z"/>
		<path id="패스_445-2" class="st8" d="M-655.1-180.6c0,0-3-3-1.6-5.3l0.5-1.4c0,0,28.5-2,31.9,0l0.6,2.6c0.4,1.2-0.1,2.5-1.3,3
			c-2,1.1-17.2,5.7-17.2,5.7s-5,1-8.5-1.2S-655.1-180.6-655.1-180.6z"/>
	</g>
	<g id="그룹_145" transform="translate(1223.551 612.97)">
		<path id="패스_343" class="st9" d="M-923.1-16.7c0,0-1-4.6,2.3-5.9s19.6-7.2,19.6-7.2s5.2-0.8,6.9,2s4.6,6.8,4.6,6.8
			c0.6,1.6-0.2,3.5-1.8,4.2c-2.9,1.6-20.6,8-20.6,8s-5.5,1.3-7.2-0.9C-920.6-11.9-921.9-14.2-923.1-16.7z"/>
		<path id="패스_356" class="st9" d="M-935.2-32.4c0,0-1-4.6,2.3-5.9s19.6-7.2,19.6-7.2s5.2-0.8,6.9,2s4.6,6.8,4.6,6.8
			c0.6,1.6-0.2,3.5-1.8,4.2c-2.9,1.6-20.6,8-20.6,8s-5.5,1.3-7.2-0.9C-932.7-27.6-934-29.9-935.2-32.4z"/>
		<path id="패스_370" class="st9" d="M-896.7-45.9c0,0-1-4.3,2.3-5.4s19.6-6.6,19.6-6.6s5.2-0.7,6.9,1.9s4.6,6.3,4.6,6.3
			s1.1,2.3-1.8,3.8s-20.6,7.3-20.6,7.3s-5.5,1.2-7.2-0.8C-894.2-41.5-895.5-43.7-896.7-45.9z"/>
		<path id="패스_358" class="st9" d="M-944.8-49.9c0,0-1-4.2,2.3-5.3s19.6-6.5,19.6-6.5s5.2-0.7,6.9,1.9s4.6,6.2,4.6,6.2
			s1.1,2.3-1.8,3.8s-20.6,7.3-20.6,7.3s-5.5,1.2-7.2-0.8C-942.4-45.5-943.7-47.6-944.8-49.9z"/>
		<path id="패스_368" class="st9" d="M-907.1-62.4c0,0-0.9-4.1,2.3-5.1s19.3-6.3,19.3-6.3s5.1-0.7,6.8,1.8s4.6,6,4.6,6
			s1.1,2.2-1.7,3.6s-20.3,7-20.3,7s-5.4,1.1-7-0.8C-904.6-58.2-905.9-60.2-907.1-62.4z"/>
		<path id="패스_374" class="st9" d="M-870.8-73.8c0,0-0.9-4.1,2.3-5.1s19.3-6.3,19.3-6.3s5.1-0.7,6.8,1.8s4.6,6,4.6,6
			s1.1,2.2-1.7,3.6s-20.3,7-20.3,7s-5.4,1.1-7-0.8C-868.4-69.5-869.7-71.6-870.8-73.8z"/>
		<path id="패스_380" class="st9" d="M-834-85.7c0,0-0.9-4.1,2.3-5.1s19.3-6.3,19.3-6.3s5.1-0.7,6.8,1.8s4.6,6,4.6,6
			s1.1,2.2-1.7,3.6s-20.3,7-20.3,7s-5.4,1.1-7-0.8C-831.5-81.5-832.8-83.6-834-85.7z"/>
		<path id="패스_387" class="st9" d="M-798.3-97.4c0,0-0.9-4.1,2.3-5.1s19.3-6.3,19.3-6.3s5.1-0.7,6.8,1.8s4.6,6,4.6,6
			s1.1,2.2-1.7,3.6s-20.3,7-20.3,7s-5.4,1.1-7-0.8C-795.9-93.2-797.2-95.3-798.3-97.4z"/>
		<path id="패스_394" class="st9" d="M-763-108c0,0-0.9-4.1,2.3-5.1s19.3-6.3,19.3-6.3s5.1-0.7,6.8,1.8s4.6,6,4.6,6
			s1.1,2.2-1.7,3.6s-20.3,7-20.3,7s-5.4,1.1-7-0.8C-760.6-103.7-761.9-105.8-763-108z"/>
		<path id="패스_403" class="st9" d="M-725.9-120.6c0,0-0.9-3.4,2.2-4.4s18.8-5.3,18.8-5.3s5-0.6,6.6,1.5c1.7,2.1,4.4,5.1,4.4,5.1
			s1,1.9-1.7,3.1s-19.7,5.9-19.7,5.9s-5.3,1-6.8-0.7C-723.5-117-724.7-118.7-725.9-120.6z"/>
		<path id="패스_411" class="st9" d="M-692.1-131.3c0,0-0.9-3.4,2.1-4.4s18.1-5.3,18.1-5.3s4.8-0.6,6.4,1.5s4.3,5.1,4.3,5.1
			s1,1.9-1.6,3.1s-19.1,5.9-19.1,5.9s-5.1,1-6.6-0.7C-689.8-127.7-691-129.5-692.1-131.3z"/>
		<path id="패스_360" class="st9" d="M-955.7-66.2c0,0-0.9-4,2.2-5.1s18.9-6.2,18.9-6.2s5-0.6,6.7,1.8s4.5,5.9,4.5,5.9
			s1.1,2.2-1.7,3.6s-19.9,6.9-19.9,6.9s-5.3,1.1-6.9-0.8C-953.4-62-954.6-64-955.7-66.2z"/>
		<path id="패스_365" class="st9" d="M-918.4-78c0,0-0.9-4,2.2-5.1s18.2-6.2,18.2-6.2s4.8-0.6,6.4,1.8s4.3,5.9,4.3,5.9
			s1,2.2-1.6,3.6s-19.2,6.9-19.2,6.9s-5.1,1.1-6.6-0.8C-916.1-73.8-917.4-75.8-918.4-78z"/>
		<path id="패스_372" class="st9" d="M-882.2-89.3c0,0-0.9-4,2.2-5.1s18.2-6.2,18.2-6.2s4.8-0.6,6.4,1.8s4.3,5.9,4.3,5.9
			s1,2.2-1.6,3.6s-19.2,6.9-19.2,6.9s-5.1,1.1-6.6-0.8C-879.9-85.2-881.1-87.2-882.2-89.3z"/>
		<path id="패스_378" class="st9" d="M-845.3-100.6c0,0-0.9-4,2.2-5.1s18.2-6.2,18.2-6.2s4.8-0.6,6.4,1.8s4.3,5.9,4.3,5.9
			s1,2.2-1.6,3.6s-19.2,6.9-19.2,6.9s-5.1,1.1-6.6-0.8C-843-96.5-844.2-98.5-845.3-100.6z"/>
		<path id="패스_388" class="st9" d="M-810.9-111.9c0,0-0.9-4,2.2-5.1s18.2-6.2,18.2-6.2s4.8-0.6,6.4,1.8s4.3,5.9,4.3,5.9
			s1,2.2-1.6,3.6s-19.2,6.9-19.2,6.9s-5.1,1.1-6.6-0.8C-808.6-107.8-809.8-109.8-810.9-111.9z"/>
		<path id="패스_396" class="st9" d="M-775.8-123.2c0,0-0.9-4,2.2-5.1c3-1.1,18.2-6.2,18.2-6.2s4.8-0.6,6.4,1.8s4.3,5.9,4.3,5.9
			s1,2.2-1.6,3.6s-19.2,6.9-19.2,6.9s-5.1,1.1-6.6-0.8C-773.5-119.1-774.8-121.1-775.8-123.2z"/>
		<path id="패스_405" class="st9" d="M-740.8-135.1c0,0-0.9-3.7,2.2-4.7s18.2-5.7,18.2-5.7s4.8-0.6,6.4,1.6s4.3,5.4,4.3,5.4
			s1,2-1.6,3.3s-19.2,6.3-19.2,6.3s-5.1,1-6.6-0.7C-738.5-131.2-739.7-133.1-740.8-135.1z"/>
		<path id="패스_414" class="st9" d="M-708.1-145.8c0,0-0.9-3.7,2.1-4.7s18.2-5.7,18.2-5.7s4.8-0.6,6.4,1.6s4.3,5.4,4.3,5.4
			s1,2-1.6,3.3s-19.1,6.3-19.1,6.3s-5.1,1-6.6-0.7C-705.8-141.9-707.1-143.8-708.1-145.8z"/>
		<path id="패스_363" class="st9" d="M-965.4-81.1c0,0-0.9-3.9,2.2-4.9s18.9-6,18.9-6s5-0.6,6.7,1.7s4.5,5.7,4.5,5.7
			s1.1,2.1-1.7,3.5s-19.9,6.7-19.9,6.7s-5.3,1.1-6.9-0.7C-963-77-964.3-79-965.4-81.1z"/>
		<path id="패스_345" class="st9" d="M-883.2-29.5c0,0-1-4.6,2.3-5.9s19.6-7.2,19.6-7.2s5.2-0.8,6.9,2s4.6,6.8,4.6,6.8
			c0.6,1.6-0.2,3.5-1.8,4.2c-2.9,1.6-20.6,8-20.6,8s-5.5,1.3-7.2-0.9C-880.8-24.7-882.1-27.1-883.2-29.5z"/>
		<path id="패스_347" class="st9" d="M-844.6-42.4c0,0-1-4.6,2.3-5.9s19.6-7.2,19.6-7.2s5.2-0.8,6.9,2s4.6,6.8,4.6,6.8
			c0.6,1.6-0.2,3.5-1.8,4.2c-2.9,1.6-20.6,8-20.6,8s-5.5,1.3-7.2-0.9C-842.1-37.5-843.4-39.9-844.6-42.4z"/>
		<path id="패스_352" class="st9" d="M-807.1-55.2c0,0-1-4.6,2.3-5.9s128.3-42,128.3-42s5.2-0.8,6.9,2l6,5.7
			c0.6,1.6-0.2,3.5-1.8,4.2C-668.2-89.5-796-47.2-796-47.2s-5.5,1.3-7.2-0.9C-804.7-50.4-806-52.8-807.1-55.2z"/>
		<path id="패스_349" class="st9" d="M-857.9-57.3c0,0-1-4.6,2.3-5.9c3.3-1.2,19.6-7.2,19.6-7.2s5.2-0.8,6.9,2s4.6,6.8,4.6,6.8
			c0.6,1.6-0.2,3.5-1.8,4.2c-2.9,1.6-20.6,8-20.6,8s-5.5,1.3-7.2-0.9C-855.4-52.5-856.7-54.9-857.9-57.3z"/>
		<path id="패스_385" class="st9" d="M-821-69.5c0,0-1-4.6,2.3-5.9s19.6-7.2,19.6-7.2s5.2-0.8,6.9,2s4.6,6.8,4.6,6.8
			c0.6,1.6-0.2,3.5-1.8,4.2c-2.9,1.6-20.6,8-20.6,8s-5.5,1.3-7.2-0.9C-818.5-64.7-819.9-67.1-821-69.5z"/>
		<path id="패스_390" class="st9" d="M-784.2-82c0,0-1-4.6,2.3-5.9s19.6-7.2,19.6-7.2s5.2-0.8,6.9,2s4.6,6.8,4.6,6.8
			c0.6,1.6-0.2,3.5-1.8,4.2c-2.9,1.6-20.6,8-20.6,8s-5.5,1.3-7.2-0.9C-781.7-77.2-783-79.6-784.2-82z"/>
		<path id="패스_398" class="st9" d="M-748.1-93.2c0,0-1-4.6,2.3-5.9s19.6-7.2,19.6-7.2s5.2-0.8,6.9,2s4.6,6.8,4.6,6.8
			c0.6,1.6-0.2,3.5-1.8,4.2c-2.9,1.6-20.6,8-20.6,8s-5.5,1.3-7.2-0.9C-745.6-88.4-746.9-90.8-748.1-93.2z"/>
		<path id="패스_408" class="st9" d="M-712.8-106.2c0,0-1-3.9,2.4-4.9s20.2-6,20.2-6s5.3-0.6,7.1,1.7s4.8,5.7,4.8,5.7
			s1.1,2.1-1.8,3.5s-21.2,6.7-21.2,6.7s-5.7,1.1-7.4-0.7C-710.2-102.2-711.6-104.2-712.8-106.2z"/>
		<path id="패스_412" class="st9" d="M-676-117.5c0,0-0.9-3.9,2.2-4.9s18.5-6,18.5-6s4.9-0.6,6.5,1.7c1.7,2.3,4.4,5.7,4.4,5.7
			s1,2.1-1.7,3.5s-19.4,6.7-19.4,6.7s-5.2,1.1-6.7-0.7C-673.7-113.4-674.9-115.4-676-117.5z"/>
		<path id="패스_421" class="st9" d="M-641.8-129.5c0,0-0.9-3.9,2.2-4.9s19-6,19-6s5-0.6,6.7,1.7s4.5,5.7,4.5,5.7s1.1,2.1-1.7,3.5
			s-20,6.7-20,6.7s-5.3,1.1-6.9-0.7C-639.4-125.5-640.7-127.5-641.8-129.5z"/>
		<path id="패스_419" class="st9" d="M-661.7-104.1c0,0-0.9-3.9,2.3-4.9s19.2-6,19.2-6s5.1-0.6,6.8,1.7s4.5,5.7,4.5,5.7
			s1.1,2.1-1.7,3.5s-20.2,6.7-20.2,6.7s-5.4,1.1-7-0.7C-659.2-100.1-660.5-102-661.7-104.1z"/>
		<path id="패스_422" class="st9" d="M-626.6-116.2c0,0-0.9-3.9,2.3-4.9s19.2-6,19.2-6s5.1-0.6,6.8,1.7s4.5,5.7,4.5,5.7
			s1.1,2.1-1.7,3.5s-20.2,6.7-20.2,6.7s-5.4,1.1-7-0.7C-624.2-112.1-625.5-114.1-626.6-116.2z"/>
		<path id="패스_364" class="st9" d="M-929-93.4c0.1,0,0.2-3.6,3-4.5c2.8-0.9,16.7-5.5,16.7-5.5s4.4-0.7,6.1,1
			c1.6,1.7,4.2,4.2,4.2,4.2s2.2,3.9-0.2,5.1c-2.4,1.2-17.8,6.4-17.8,6.4s-5.2,1.1-6.7-0.2C-925.3-88.2-928.2-90.8-929-93.4z"/>
		<path id="패스_377" class="st9" d="M-892.8-104.7c0.1,0,0.2-3.6,3-4.5c2.8-0.9,16.7-5.5,16.7-5.5s4.4-0.7,6.1,1
			c1.6,1.7,4.2,4.2,4.2,4.2s2.2,3.9-0.2,5.1c-2.4,1.2-17.8,6.4-17.8,6.4s-5.2,1.1-6.7-0.2C-889-99.6-892-102.1-892.8-104.7z"/>
		<path id="패스_383" class="st9" d="M-857.1-116.1c0.1,0,0.2-3.6,3-4.5c2.8-0.9,16.7-5.5,16.7-5.5s4.4-0.7,6.1,1
			c1.6,1.7,4.2,4.2,4.2,4.2s2.2,3.9-0.2,5.1c-2.4,1.2-17.8,6.4-17.8,6.4s-5.2,1.1-6.7-0.2C-853.4-111-856.4-113.5-857.1-116.1z"/>
		<path id="패스_393" class="st9" d="M-823.1-126.9c0.1,0,0.2-3.6,2.9-4.5c2.7-0.9,16.3-5.5,16.3-5.5s4.4-0.7,5.9,1
			c1.6,1.7,4.1,4.2,4.1,4.2s2.2,3.9-0.2,5.1c-2.4,1.2-17.4,6.4-17.4,6.4s-5.1,1.1-6.6-0.2C-819.4-121.7-822.3-124.2-823.1-126.9z"/>
		<path id="패스_401" class="st9" d="M-789.3-137.6c0.1,0,0.2-3.6,2.9-4.5c2.7-0.9,16.3-5.5,16.3-5.5s4.4-0.7,5.9,1
			c1.6,1.7,4.1,4.2,4.1,4.2s2.2,3.9-0.2,5.1c-2.4,1.2-17.4,6.4-17.4,6.4s-5.1,1.1-6.6-0.2S-788.5-135-789.3-137.6z"/>
		<path id="패스_407" class="st9" d="M-755.2-148.4c0.1,0,0.2-3.4,2.9-4.3c2.7-0.9,16.4-5.3,16.4-5.3s4.4-0.7,5.9,0.9s4.1,4,4.1,4
			s2.2,3.7-0.2,4.8c-2.4,1.1-17.5,6.1-17.5,6.1s-5.1,1.1-6.6-0.2C-751.5-143.5-754.5-145.9-755.2-148.4z"/>
		<path id="패스_417" class="st9" d="M-722.6-158.8c0.1,0,0.2-3.2,2.9-4c2.7-0.9,16.4-5,16.4-5s4.4-0.7,5.9,0.9
			c1.6,1.5,4.1,3.7,4.1,3.7s2.1,3.5-0.2,4.5c-2.4,1.1-17.5,5.8-17.5,5.8s-5.1,1-6.6-0.1C-719-154.2-721.9-156.5-722.6-158.8z"/>
		<path id="패스_438" class="st9" d="M-588.9-126.6c0,0-4-3.5,2-5.8s15.8-5.7,15.8-5.7c2.6-0.8,5.5-0.4,7.8,1.1
			c3.7,2.5,7.3,5.5,7.3,5.5s2.2,2.2,0,3.6c-2.2,1.4-18.8,7.1-18.8,7.1s-5.5,1.2-9.3-1.5S-588.9-126.6-588.9-126.6z"/>
		<path id="패스_441" class="st9" d="M-608-139c0,0-4-3.5,2-5.8s15.8-5.7,15.8-5.7c2.6-0.8,5.5-0.4,7.8,1.1
			c3.7,2.5,7.3,5.5,7.3,5.5s2.2,2.2,0,3.6s-18.8,7.1-18.8,7.1s-5.5,1.2-9.3-1.5S-608-139-608-139z"/>
		<path id="패스_442" class="st9" d="M-640.5-165.9c0,0-3.1-1.9,2.4-4s14.4-5.4,14.4-5.4c2.4-0.8,5-0.4,7.1,1
			c3.4,2.4,5.7,3.9,5.7,3.9s2,2.1,0,3.4s-16.8,6.5-16.8,6.5s-5,1.2-8.5-1.4S-640.5-165.9-640.5-165.9z"/>
		<path id="패스_451" class="st9" d="M-657.8-143.5c0,0-3.1-1.9,2.4-4s48.9-16,48.9-16c2.4-0.8,5-0.4,7.1,1
			c3.4,2.4,5.7,3.9,5.7,3.9s2,2.1,0,3.4S-645-138-645-138s-5,1.2-8.5-1.4S-657.8-143.5-657.8-143.5z"/>
		<path id="패스_447" class="st9" d="M-674.1-156.2c0,0-3.1-1.9,2.4-4s14.4-5.4,14.4-5.4c2.4-0.8,5-0.4,7.1,1
			c3.4,2.4,5.7,3.9,5.7,3.9s2,2.1,0,3.4s-16.8,6.5-16.8,6.5s-5,1.2-8.5-1.4S-674.1-156.2-674.1-156.2z"/>
		<path id="패스_448" class="st9" d="M-690.2-168.7c0,0-3.1-1.9,2.4-4s15-4.8,15-4.8c2.4-0.8,5-0.4,7.1,1c3.4,2.4,6,3.8,6,3.8
			s2,2.1,0,3.4s-17.7,6.1-17.7,6.1s-5,1.2-8.5-1.4S-690.2-168.7-690.2-168.7z"/>
		<path id="패스_444" class="st9" d="M-656.8-178.4c0,0-3.1-1.9,2.4-4s14.4-5.4,14.4-5.4c2.4-0.8,5-0.4,7.1,1
			c3.4,2.4,5.7,3.9,5.7,3.9s2,2.1,0,3.4S-644-173-644-173s-5,1.2-8.5-1.4S-656.8-178.4-656.8-178.4z"/>
	</g>
	<path id="패스_353" class="st10" d="M433.5,586.7c0,0-6-7,4-10s130.4-43.3,130.4-43.3s5.6-3,10.2,1.2s30.1,26,30.1,26
		s2.4,2-1.4,4s-142.2,50.3-142.2,50.3s-6,2.2-9.2-1.6S433.5,586.7,433.5,586.7z"/>
	<path id="교차_1" class="st11" d="M455.4,613.3c-3.2-3.8-21.8-26.6-21.8-26.6c-0.4-0.5-0.8-1.1-1.1-1.8c0.8-1.2,2.3-2.4,5.1-3.2
		c10-3,130.4-43.3,130.4-43.3s5.6-3,10.2,1.2c4,3.6,23.6,20.5,28.8,25l-0.1,0.1c-3.8,2-142.2,50.3-142.2,50.3
		c-1.2,0.4-2.5,0.6-3.8,0.6C458.7,615.6,456.7,614.8,455.4,613.3z"/>
	<path id="패스_468" class="st12" d="M433.5,586.7c0,0-6-7,4-10s130.4-43.3,130.4-43.3s5.6-3,10.2,1.2s30.1,26,30.1,26
		s2.4,2-1.4,4s-142.2,50.3-142.2,50.3s-6,2.2-9.2-1.6S433.5,586.7,433.5,586.7z"/>
	<animateTransform
		additive="sum"
		attributeName="transform"
		type="translate"
		begin="0s"
		dur="4.5s"
		keyTimes="0; 0.1;0.5;0.9;1"
		values="0 0; 0 10; 0 20; 0 10; 0 0"
		repeatCount="indefinite"
		calcMode="paced"
	/>
</g>
<g>
	<defs>
		<path id="SVGID_1_" d="M100.7,224.3c0,0-5.7-33.9,18.9-39.6s419-103.4,419-103.4s29.9-11.9,37,18s59.4,253.5,59.4,253.5
			s5.3,26-8.4,31.7S215.6,513.9,215.6,513.9s-33.9,15.4-44.5-27.7S100.7,224.3,100.7,224.3z"/>
	</defs>
	<clipPath id="SVGID_00000139256874633443030950000006797018670393179324_">
		<use xlink:href="#SVGID_1_"  style="overflow:visible;"/>
	</clipPath>
	
		<path id="buble-shadow" style="filter: blur(16px);opacity:0.24;clip-path:url(#SVGID_00000139256874633443030950000006797018670393179324_);enable-background:new    ;" d="
		M490.5,22.1c0,0,6.2-16.4,28.1-13C540.6,12.6,763.2,53,763.2,53s27.8,2.4,23,28.1s-32.7,156.4-32.7,156.4s-6.5,26.5-39.1,18.4
		c-32.6-8.1-80.9-16.3-80.9-16.3s-12.6-3.8-17.9,1.3c-5.3,5-15,15.1-15,15.1s-7.8,7.6-11.8-2.5c-4-10.1-7.2-17.2-7.2-17.2
		s-1.2-7.3-15.3-9.6c-14.2-2.3-91-17.6-91-17.6s-23.1-5.7-17.6-31.5S490.5,22.1,490.5,22.1z"/>
	<path id="content01-shadow" style="filter: blur(16px);opacity:0.24;clip-path:url(#SVGID_00000139256874633443030950000006797018670393179324_);" d="
		M-19.3,415.7l-7.7-41.4c-1.2-6.5,2.5-12.9,8.3-14.4l187.8-46.8c0,0,17.7-4.6,21.8,9.7l7.7,41.4c1.2,6.5-2.5,12.9-8.3,14.4
		L-0.6,425.7c0,0,0.1,0,0.1,0C-0.5,425.7-16.7,429.7-19.3,415.7z"/>
	<path id="content02-shadow" style="filter: blur(16px);opacity:0.24;clip-path:url(#SVGID_00000139256874633443030950000006797018670393179324_);" d="
		M59.4,501.7l-7.7-41.4c-1.2-6.5,2.5-12.9,8.3-14.4l187.8-46.8c0,0,17.7-4.6,21.8,9.7l7.7,41.4c1.2,6.5-2.5,12.9-8.3,14.4
		L78.1,511.7c0,0,0.1,0,0.1,0C78.2,511.7,62,515.6,59.4,501.7z"/>
	<animateTransform
		additive="sum"
		attributeName="transform"
		type="translate"
		begin="0s"
		dur="4.5s"
		keyTimes="0; 0.1;0.5;0.9;1"
		values="0 0; 0 10; 0 20; 0 10; 0 0"
		repeatCount="indefinite"
		calcMode="paced"
	/>
</g>
<g id="bubble01" transform="matrix(0.998, -0.07, 0.07, 0.998, -28.83, 65.051)">
	<g id="그룹_147" transform="translate(1489.194 231.724)">
		<path id="패스_338" class="st15" d="M-912.4-245.3c0,0,6-13.2,23.9-9.1s199,50.3,199,50.3s22.8,3.6,17.3,24.5s-36,127-36,127
			s-6.9,21.4-33.3,12.9s-65.7-18.1-65.7-18.1s-10.2-3.8-14.8,0s-13.2,11.5-13.2,11.5s-6.9,5.8-9.6-2.7s-4.9-14.6-4.9-14.6
			s-0.5-6-12.1-8.8s-73.9-19.8-73.9-19.8s-18.7-6-12.6-26.9S-912.4-245.3-912.4-245.3z"/>
		<path id="교차_2" class="st16" d="M-844.7-49.1c-5.5-22-8.6-21.7-32-27.2c-4-19.9-39.5-84-49.8-119.2
			c7.6-26.7,14.2-49.8,14.2-49.8s6-13.1,23.7-9.1c-0.9,11.8,0.9,35.6,20,72.3c25,48.2,55.4,72.3,62.5,124.4
			C-825.2-68.9-837-32-844.7-49.1z"/>
		<path id="교차_3" class="st16" d="M-741.4-39.7L-741.4-39.7c1-77.9-31.1-135.8-77.4-197.2c20.9,5.3,43.6,11,64.1,16.2
			c40.6,49.5,46,82.9,51.4,151.3c-2.9,10.2-4.8,16.8-4.8,16.8C-710.3-44.9-722.4-32.8-741.4-39.7z"/>
	</g>
	
		<ellipse id="타원_36" transform="matrix(-0.9975 -6.996585e-02 6.996585e-02 -0.9975 1246.6475 186.4197)" class="st17" cx="626.6" cy="71.4" rx="12.2" ry="12.2"/>
	
		<ellipse id="타원_37" transform="matrix(-0.9975 -6.996585e-02 6.996585e-02 -0.9975 1349.3079 217.8333)" class="st17" cx="678.5" cy="85.3" rx="13.3" ry="13.3"/>
	
		<ellipse id="타원_38" transform="matrix(-0.9975 -6.996585e-02 6.996585e-02 -0.9975 1461.9292 252.28)" class="st17" cx="735.4" cy="100.5" rx="13.3" ry="13.3"/>
	<animateTransform
		additive="sum"
		attributeName="transform"
		type="rotate"
		begin="0s"
		dur="3.0s"
		keyTimes="0; 0.2; 0.5; 0.8; 1"
		calcMode="paced"
		values="-5 700 60; -2 700 60; 5 700 60; -2 700 60; -5 700 60"
		repeatCount="indefinite"
	/>
</g>
<g id="laptop-shadow" class="st18" style="filter: blur(16px);">
	<ellipse class="st19" cx="454.5" cy="743.3" rx="319" ry="31.5"/>
	<animate attributeName="fill-opacity" attributeType="CSS"
       begin="0s" dur="4.5s" fill="freeze" repeatCount="indefinite"
	   values="0.3; 0.8; 1;0.8;0.3;"
	/>
</g>
<g id="logo">
	<path class="st20" d="M461.1,336.9l-16.8-83.6c-4.4-20.5-22.2-34-41-31.4c-1.4,0.2-2.7,0.5-4.1,0.8c-20.2,5.4-32.6,27.6-28.3,50.1
		l4.3,21.1l22.1,76.5c3.1,1.7,6.6,2.3,10.1,1.8c0.3,0,0.7-0.1,1-0.2l39.4-10.5C457.4,358.6,463.3,347.9,461.1,336.9z"/>
	
		<linearGradient id="패스_653_00000093869894353457452970000001804091508195146157_" gradientUnits="userSpaceOnUse" x1="-1118.8787" y1="1158.7371" x2="-1118.1786" y2="1157.79" gradientTransform="matrix(48.767 0 0 -151.3138 54938.2227 175530.9531)">
		<stop  offset="0" style="stop-color:#37547D"/>
		<stop  offset="0.393" style="stop-color:#123357"/>
		<stop  offset="1" style="stop-color:#272B35"/>
	</linearGradient>
	<path id="패스_653" style="fill:url(#패스_653_00000093869894353457452970000001804091508195146157_);" d="M370.3,268.7
		c0-0.3,0-0.5-0.1-0.8c0-0.4-0.1-0.8-0.1-1.2c0-0.3,0-0.6,0-0.9c0-0.4,0-0.8,0-1.2c0-0.3,0-0.6,0-0.9c0-0.4,0-0.8,0-1.1
		c0-0.3,0-0.6,0-0.9c0-0.4,0-0.7,0.1-1.1c0-0.3,0-0.6,0.1-0.9c0-0.4,0.1-0.7,0.1-1.1c0-0.3,0.1-0.6,0.1-0.9c0-0.4,0.1-0.7,0.1-1.1
		c0-0.3,0.1-0.6,0.1-0.9c0.1-0.4,0.1-0.7,0.2-1c0.1-0.3,0.1-0.6,0.2-0.9c0.1-0.3,0.2-0.7,0.2-1c0.1-0.3,0.1-0.6,0.2-0.9
		c0.1-0.3,0.2-0.7,0.3-1c0.1-0.3,0.2-0.6,0.3-0.9c0.1-0.3,0.2-0.7,0.3-1c0.1-0.3,0.2-0.6,0.3-0.8c0.1-0.3,0.2-0.7,0.4-1
		c0.1-0.3,0.2-0.5,0.3-0.8c0.1-0.3,0.3-0.7,0.4-1c0.1-0.3,0.2-0.5,0.3-0.8c0.2-0.3,0.3-0.7,0.5-1c0.1-0.2,0.2-0.5,0.4-0.7
		c0.1-0.1,0.1-0.2,0.2-0.4c0.4-0.8,0.9-1.6,1.3-2.3c0.1-0.1,0.1-0.2,0.2-0.4c0.5-0.8,1-1.6,1.6-2.3c0.1-0.2,0.2-0.3,0.3-0.5
		c0.6-0.8,1.1-1.5,1.7-2.2c0.1-0.1,0.1-0.2,0.2-0.3c0.6-0.7,1.2-1.3,1.8-1.9c0.1-0.1,0.2-0.2,0.3-0.3c0.2-0.2,0.5-0.5,0.8-0.7
		c0.2-0.2,0.4-0.4,0.6-0.6c0.3-0.2,0.5-0.5,0.8-0.7c0.2-0.2,0.4-0.4,0.7-0.6c0.3-0.2,0.6-0.4,0.9-0.7c0.2-0.2,0.4-0.4,0.7-0.5
		c0.3-0.2,0.6-0.4,0.9-0.6c0.2-0.2,0.4-0.3,0.7-0.5c0.3-0.2,0.7-0.4,1-0.6c0.2-0.1,0.4-0.3,0.6-0.4c0.4-0.2,0.8-0.5,1.2-0.7
		c0.2-0.1,0.3-0.2,0.5-0.3c0.6-0.3,1.2-0.6,1.8-0.8c0.1-0.1,0.3-0.1,0.4-0.2c0.5-0.2,0.9-0.4,1.4-0.6c0.4-0.2,0.8-0.3,1.2-0.4
		c0.2-0.1,0.4-0.1,0.6-0.2c0.6-0.2,1.2-0.4,1.9-0.5c1.3-0.4,2.7-0.6,4.1-0.8c2.2-0.3,4.4-0.4,6.6-0.3l-9-0.5c-2.2-0.1-4.4,0-6.6,0.3
		c-1.4,0.2-2.7,0.5-4.1,0.8c-0.6,0.2-1.2,0.3-1.9,0.5c-0.2,0.1-0.4,0.1-0.6,0.2c-0.4,0.1-0.8,0.3-1.2,0.4l0,0
		c-0.5,0.2-0.9,0.4-1.4,0.6c-0.1,0.1-0.3,0.1-0.4,0.2c-0.6,0.3-1.2,0.5-1.8,0.8c-0.2,0.1-0.3,0.2-0.5,0.2c-0.4,0.2-0.8,0.4-1.2,0.7
		c-0.2,0.1-0.4,0.3-0.6,0.4c-0.3,0.2-0.7,0.4-1,0.6c-0.2,0.1-0.4,0.3-0.7,0.5c-0.3,0.2-0.6,0.4-0.9,0.6c-0.2,0.2-0.4,0.3-0.7,0.5
		c-0.3,0.2-0.6,0.4-0.9,0.7c-0.2,0.2-0.4,0.4-0.7,0.6c-0.3,0.2-0.5,0.5-0.8,0.7c-0.2,0.2-0.4,0.4-0.6,0.6c-0.3,0.2-0.5,0.5-0.8,0.7
		c0,0-0.1,0.1-0.1,0.1c-0.1,0.1-0.1,0.1-0.2,0.2c-0.6,0.6-1.2,1.3-1.8,1.9c-0.1,0.1-0.1,0.2-0.2,0.3c-0.6,0.7-1.2,1.4-1.7,2.2
		c-0.1,0.2-0.2,0.3-0.3,0.5c-0.5,0.8-1.1,1.5-1.6,2.3c-0.1,0.1-0.1,0.2-0.2,0.4c-0.5,0.8-0.9,1.5-1.3,2.3c0,0.1-0.1,0.1-0.1,0.2
		c0,0,0,0.1-0.1,0.1c-0.1,0.2-0.2,0.5-0.4,0.7c-0.2,0.3-0.3,0.7-0.5,1c-0.1,0.3-0.2,0.5-0.3,0.8c-0.1,0.3-0.3,0.7-0.4,1
		c-0.1,0.3-0.2,0.5-0.3,0.8c-0.1,0.3-0.3,0.7-0.4,1c-0.1,0.3-0.2,0.6-0.3,0.8c-0.1,0.3-0.2,0.7-0.3,1c-0.1,0.3-0.2,0.6-0.3,0.9
		c-0.1,0.3-0.2,0.7-0.3,1c-0.1,0.3-0.1,0.6-0.2,0.9c-0.1,0.3-0.2,0.7-0.2,1c-0.1,0.3-0.1,0.6-0.2,0.9c-0.1,0.3-0.1,0.7-0.2,1.1
		c-0.1,0.3-0.1,0.6-0.1,0.9c-0.1,0.4-0.1,0.7-0.1,1.1c0,0.3-0.1,0.6-0.1,0.9c0,0.4-0.1,0.7-0.1,1.1c0,0.3-0.1,0.6-0.1,0.9
		c0,0.4,0,0.7-0.1,1.1c0,0.3,0,0.6,0,0.9c0,0.4,0,0.8,0,1.1c0,0.3,0,0.6,0,0.9c0,0.4,0,0.8,0,1.2c0,0.3,0,0.6,0,0.9
		c0,0.4,0.1,0.8,0.1,1.2c0,0.3,0,0.5,0.1,0.8c0,0.5,0.1,0.9,0.2,1.4c0,0.2,0.1,0.5,0.1,0.7c0.1,0.7,0.2,1.4,0.3,2.1l4.3,21.1
		l22.1,76.5c1,0.6,2.1,1,3.3,1.4c0.1,0,0.2,0.1,0.4,0.1c1,0.3,2.1,0.5,3.2,0.5l5,0.3l1.6,0.1l2.4,0.1l0,0c-0.4,0-0.7-0.1-1.1-0.1
		c-0.2,0-0.5,0-0.7-0.1c-0.2,0-0.4-0.1-0.6-0.1c-0.4-0.1-0.8-0.2-1.1-0.3c-0.1,0-0.2-0.1-0.3-0.1c-0.8-0.2-1.5-0.6-2.3-0.9
		l-22.8-76.9l-4.3-21.1c-0.1-0.7-0.2-1.4-0.3-2.1c0-0.2-0.1-0.5-0.1-0.7C370.4,269.6,370.4,269.2,370.3,268.7"/>
	<path id="패스_656" class="st22" d="M383.9,294.1l-8.7-0.2l-31.3-0.9c-0.9,0-1.9,0-2.8,0.2c-8.9,1.3-16,9.6-16.4,20l-1.5,44.7
		c-0.4,11.4,7.6,20.9,17.8,21.1l40.1,1.1c0.9,0,1.9,0,2.8-0.2c5.7-0.9,10.7-4.5,13.5-9.6c1.8-3.2,2.8-6.8,2.9-10.4l1.5-44.7
		C402.1,303.9,394.1,294.4,383.9,294.1"/>
	
		<linearGradient id="패스_658_00000141440360834415379070000011032443120510081441_" gradientUnits="userSpaceOnUse" x1="-1120.1356" y1="1158.7422" x2="-1120.1876" y2="1157.7422" gradientTransform="matrix(60.9699 0 0 -86.4906 68640.3828 100513.8203)">
		<stop  offset="0" style="stop-color:#82C6EB"/>
		<stop  offset="0.142" style="stop-color:#68B2DC"/>
		<stop  offset="0.188" style="stop-color:#5AA5CF"/>
		<stop  offset="1" style="stop-color:#223C4A"/>
	</linearGradient>
	<path id="패스_658" style="fill:url(#패스_658_00000141440360834415379070000011032443120510081441_);" d="M366.2,293.4
		l-31.3-0.9c-0.9,0-1.9,0-2.8,0.2c-0.5,0.1-1,0.2-1.5,0.3c-0.1,0-0.2,0-0.2,0.1c-0.5,0.1-0.9,0.3-1.4,0.4l-0.3,0.1
		c-0.1,0-0.2,0.1-0.3,0.1c-0.1,0.1-0.3,0.1-0.4,0.2c-0.4,0.1-0.7,0.3-1,0.5c-0.2,0.1-0.4,0.2-0.6,0.3c-0.3,0.2-0.7,0.4-1,0.6
		c-0.2,0.1-0.4,0.3-0.6,0.4c-0.3,0.2-0.6,0.5-1,0.7c-0.2,0.1-0.3,0.3-0.5,0.4c-0.4,0.3-0.7,0.6-1.1,1c-0.1,0.1-0.2,0.1-0.3,0.2
		c0,0,0,0,0,0c-0.1,0.1-0.2,0.2-0.3,0.4c-0.3,0.3-0.5,0.6-0.8,0.9c-0.1,0.2-0.3,0.3-0.4,0.5c-0.2,0.3-0.4,0.5-0.6,0.8
		c-0.1,0.2-0.3,0.4-0.4,0.6c-0.2,0.3-0.4,0.6-0.5,0.8c-0.1,0.2-0.2,0.4-0.4,0.6c-0.1,0.2-0.2,0.3-0.3,0.5c-0.1,0.1-0.1,0.3-0.2,0.4
		c-0.1,0.1-0.1,0.2-0.2,0.4c-0.2,0.5-0.4,1-0.6,1.5c0,0,0,0.1-0.1,0.1c-0.2,0.5-0.3,0.9-0.5,1.4c0,0.1-0.1,0.3-0.1,0.4
		c-0.1,0.5-0.3,1.1-0.4,1.6c0,0,0,0.1,0,0.1c-0.1,0.5-0.2,1-0.2,1.6c0,0.1,0,0.3,0,0.4c-0.1,0.6-0.1,1.1-0.1,1.7l-1.5,44.7
		c-0.1,3.3,0.5,6.7,1.8,9.7c0.5,1.2,1.1,2.3,1.8,3.3c1.4,2,3.1,3.8,5.1,5.2c2.5,1.7,5.5,2.7,8.5,2.9l9,0.5
		c-10-0.6-17.7-9.9-17.3-21.1l1.5-44.7c0-0.6,0.1-1.1,0.1-1.7c0-0.1,0-0.3,0-0.4c0.1-0.5,0.1-1.1,0.2-1.6c0,0,0-0.1,0-0.1
		c0.1-0.5,0.2-1.1,0.4-1.6c0-0.1,0.1-0.3,0.1-0.4c0.1-0.5,0.3-0.9,0.5-1.4c0,0,0-0.1,0.1-0.1c0.2-0.5,0.4-1,0.6-1.5
		c0.1-0.1,0.1-0.2,0.2-0.4c0.2-0.3,0.3-0.6,0.5-1c0.1-0.2,0.2-0.4,0.4-0.6c0.2-0.3,0.3-0.6,0.5-0.8c0.1-0.2,0.3-0.4,0.4-0.6
		c0.2-0.3,0.4-0.6,0.6-0.8c0.1-0.2,0.3-0.3,0.4-0.5c0.2-0.3,0.5-0.6,0.8-0.9c0.1-0.1,0.2-0.2,0.3-0.4c0.1-0.1,0.2-0.2,0.3-0.3
		c0.3-0.3,0.7-0.7,1.1-1c0.2-0.1,0.3-0.3,0.5-0.4c0.3-0.2,0.6-0.5,1-0.7c0.2-0.1,0.4-0.3,0.6-0.4c0.3-0.2,0.6-0.4,1-0.6
		c0.2-0.1,0.4-0.2,0.6-0.3c0.3-0.2,0.7-0.3,1-0.5c0.3-0.1,0.5-0.2,0.8-0.3c0.1,0,0.2-0.1,0.3-0.1c0.5-0.2,0.9-0.3,1.4-0.4l0.2-0.1
		c0.5-0.1,1-0.2,1.5-0.3c0.9-0.1,1.9-0.2,2.8-0.2l31.3,0.9L366.2,293.4z"/>
	<path id="패스_655" class="st24" d="M386.1,321c7.5,14.8,2.8,33.7-10.6,42.3c-3.2,2.1-6.7,3.4-10.5,3.9
		c-10.7,1.5-21.7-4.1-27.3-15.2c-7.5-14.8-2.8-33.7,10.6-42.3c3.2-2.1,6.7-3.4,10.5-3.9C369.6,304.3,380.5,309.9,386.1,321"/>
	<path id="패스_654" d="M374.9,334.1c1.7,8.3-3,16.7-10.5,18.7c-0.5,0.1-1,0.2-1.5,0.3c-6.9,1-13.5-4-15.1-11.8
		c-1.7-8.3,3-16.7,10.5-18.7c0.5-0.1,1-0.2,1.5-0.3C366.7,321.4,373.3,326.4,374.9,334.1 M365.1,334c2.7-0.9,4.3-3.8,3.7-6.6
		c-0.4-2.6-2.7-4.4-5.3-4.1c-0.2,0-0.4,0.1-0.5,0.1c-2.7,0.9-4.3,3.8-3.7,6.6c0.4,2.6,2.7,4.4,5.3,4.1
		C364.7,334,364.9,334,365.1,334"/>
	<path id="패스_650" class="st24" d="M427.9,242.7c10.8,12.2,10.5,31.9-0.5,44.1c-4.2,4.8-10,7.9-16.3,8.9
		c-8.7,1.2-17.5-2.2-23.2-8.9c-10.8-12.2-10.5-31.9,0.5-44.1c4.2-4.8,10-7.9,16.3-8.9C413.4,232.6,422.1,236,427.9,242.7"/>
	<g>
		<path d="M420.8,260.8c-1.6-7.8-8.2-12.8-15.2-11.8c-0.5,0.1-1,0.2-1.5,0.3c-7.5,2-12.3,10.4-10.5,18.8c1.6,7.8,8.2,12.8,15.2,11.8
			c0.5-0.1,1-0.2,1.5-0.3C417.8,277.6,422.5,269.2,420.8,260.8z M410.9,260.7c-0.2,0-0.4,0.1-0.5,0.1c-2.6,0.3-5-1.6-5.3-4.2
			c-0.7-2.8,0.9-5.7,3.7-6.6c0.2,0,0.4-0.1,0.5-0.1v0c2.6-0.3,5,1.6,5.3,4.2C415.3,256.9,413.7,259.8,410.9,260.7z"/>
	</g>
	<animateTransform
		additive="sum"
		attributeName="transform"
		type="translate"
		begin="0s"
		dur="4.5s"
		keyTimes="0; 0.1;0.5;0.9;1"
		values="0 0; 0 10; 0 20; 0 10; 0 0"
		repeatCount="indefinite"
		calcMode="paced"
	/>
</g>
<g id="content01" class="st25">
	<path class="st26" d="M205.4,260.7c5.8-1.4,11.5,2.6,12.7,9.1l7.7,41.4c1.2,6.5-2.5,12.9-8.3,14.4L29.7,372.4
		c-5.8,1.4-11.5-2.6-12.7-9.1l-7.7-41.4c-1.2-6.5,2.5-12.9,8.3-14.4L205.4,260.7z"/>
	<polygon class="st17" points="195.3,280 198.9,299.2 79.9,328.9 76.4,309.6 	"/>
	
		<linearGradient id="SVGID_00000046313832299391509320000001561303648256076929_" gradientUnits="userSpaceOnUse" x1="4.6856" y1="343.126" x2="223.3739" y2="286.8707">
		<stop  offset="0" style="stop-color:#9EBDC6"/>
		<stop  offset="0.1425" style="stop-color:#B8D2DA"/>
		<stop  offset="1" style="stop-color:#D3E8EF"/>
	</linearGradient>
	<path style="fill:url(#SVGID_00000046313832299391509320000001561303648256076929_);" d="M199.3,259.8c-1-0.1-2,0-3,0.3L8.6,306.9
		c-5.8,1.4-9.5,7.9-8.3,14.4l7.7,41.4c1,5.4,5.1,9.1,9.7,9.4l9.1,0.6c-4.7-0.3-8.7-4-9.7-9.4l-7.7-41.4c-1.2-6.5,2.5-12.9,8.3-14.4
		l187.8-46.8c1-0.2,2-0.3,3-0.3L199.3,259.8z"/>
	<polygon class="st28" points="58.2,314.1 64.3,347.1 34.8,354.4 28.8,321.5 	"/>
	<path class="st17" d="M18.7,307.9l175.8-44.7L17.7,307.3c-5.8,1.4-9.5,7.9-8.3,14.4l7.6,41.4l-6.7-40.8
		C9.1,315.8,12.9,309.4,18.7,307.9z"/>
	<animateTransform
		additive="sum"
		attributeName="transform"
		type="rotate"
		begin="0s"
		dur="3.5s"
		keyTimes="0; 0.2; 0.5; 0.7; 1"
		calcMode="paced"
		values="5 150 360; 2 150 360; -5 150 360; 2 150 360; 5 150 360"
		repeatCount="indefinite"
	/>
</g>
<g id="content02" class="st25">
	<path class="st29" d="M284.1,346.7c5.8-1.4,11.5,2.6,12.7,9.1l7.6,41.4c1.2,6.5-2.5,12.9-8.3,14.4l-187.8,46.8
		c-5.8,1.4-11.5-2.6-12.7-9.1L88,407.9c-1.2-6.5,2.5-12.9,8.3-14.4L284.1,346.7z"/>
	
		<linearGradient id="SVGID_00000052067874831355082510000003502988056335632799_" gradientUnits="userSpaceOnUse" x1="78.6787" y1="402.2495" x2="287.1018" y2="402.2495">
		<stop  offset="0" style="stop-color:#B7CDBB"/>
		<stop  offset="0.1257" style="stop-color:#E1EBE1"/>
		<stop  offset="1" style="stop-color:#EAF2E9"/>
	</linearGradient>
	<path style="fill:url(#SVGID_00000052067874831355082510000003502988056335632799_);" d="M278,345.8c-1-0.1-2,0-3,0.3L87.2,392.9
		c-5.8,1.4-9.5,7.9-8.3,14.4l7.6,41.4c1,5.4,5.1,9.1,9.7,9.4l9.1,0.6c-4.7-0.3-8.7-4-9.7-9.4L88,407.9c-1.2-6.5,2.5-12.9,8.3-14.4
		l187.8-46.8c1-0.2,2-0.3,3-0.3L278,345.8z"/>
	<path class="st17" d="M97.3,394.1l175.8-44.7L96.3,393.5c-5.8,1.4-9.5,7.9-8.3,14.4l7.6,41.4L89,408.5
		C87.8,402,91.5,395.6,97.3,394.1z"/>
	<polygon class="st17" points="274,366 277.6,385.2 158.6,414.9 155,395.6 	"/>
	<polygon class="st31" points="136.9,400.1 142.9,433.1 113.5,440.4 107.4,407.5 	"/>
	<animateTransform
		additive="sum"
		attributeName="transform"
		type="rotate"
		begin="0s"
		dur="3.5s"
		keyTimes="0; 0.2; 0.5; 0.7; 1"
		calcMode="paced"
		values="-5 250 460; -2 250 460; 5 250 460; -2 250 460; -5 250 460"
		repeatCount="indefinite"
	/>
</g>
<g id="airplane">
	<polygon class="st32" points="773.6,346.3 750.1,344.3 773.1,372.1 	"/>
	<polygon class="st33" points="698.8,342 741,343.2 756.4,307.5 720.7,319.3 	"/>
	<polygon class="st34" points="720.7,319.3 756.4,307.5 775.8,262.3 	"/>
	<polygon class="st35" points="775.8,262.3 761.3,307.7 799.1,324.9 	"/>
	<polygon class="st36" points="807.9,349.1 799.1,324.9 761.3,307.7 750.1,344.3 	"/>
	<polygon class="st37" points="775.8,262.3 756.3,307.6 760.3,311.9 	"/>
	<polygon class="st38" points="760.3,311.9 756.3,307.6 741,343.2 773.1,372.1 750.1,344.3 	"/>
	<animateTransform
		additive="sum"
		attributeName="transform"
		type="rotate"
		begin="0s"
		dur="2.5s"
		keyTimes="0; 0.2; 0.5; 0.7; 1"
		calcMode="paced"
		values="5 800 260; 2 800 260; -5 800 260; 2 800 260; 5 800 260"
		repeatCount="indefinite"
	/>
</g>
</svg>
